<?xml version="1.0" encoding="utf-8"?>
<!-- Generator: Adobe Illustrator 22.1.0, SVG Export Plug-In . SVG Version: 6.00 Build 0)  -->
<svg version="1.1" id="Layer_1" xmlns="http://www.w3.org/2000/svg" xmlns:xlink="http://www.w3.org/1999/xlink" x="0px" y="0px"
	 viewBox="0 0 249 228" style="enable-background:new 0 0 249 228;" xml:space="preserve">
<style type="text/css">
	.st0{fill:#FCB641;}
	.st1{fill:#FFFFFF;}
	.st2{fill:#E8940F;}
	.st3{fill:#B36D00;}
	.st4{fill:#FDD403;}
	.st5{fill:#3B1100;}
	.st6{fill:#572B14;}
	.st7{fill:#B2832B;}
	.st8{fill:#87431F;}
	.st9{fill:#BED724;}
	.st10{fill:#60A43A;}
	.st11{fill:#D95E55;}
	.st12{fill:#C2392F;}
	.st13{fill:#912B23;}
	.st14{fill:#FFFEFF;}
	.st15{fill:#ED9F03;}
</style>
<title>burger</title>
<desc>Created with Sketch.</desc>
<g id="Page-1">
	<g id="burger" transform="translate(-1.000000, 0.000000)">
		<g id="buns-lower" transform="translate(17.000000, 138.000000)">
			<path id="Path" class="st0" d="M208.9,34.7c-0.1-0.5-0.1-1.1-0.2-1.7c-1,1.2-2.3,2.3-3.6,3.1c-2.8,1.9-5.8,3.3-9,4.4
				c-0.1,0-0.2,0-0.3-0.1c0-0.1,0-0.2,0.1-0.3c2.1-1.2,4.2-2.5,6.2-3.9c2.2-1.6,5-3.4,5.8-6.1c0-0.1,0.1-0.2,0.2-0.3
				c-0.2-1.3-0.6-2.5-1-3.7c-5-15.2-28.1-17.7-42-19.5c-34.3-4.5-69-5.2-103.5-2c-9.2,0.8-18.3,2-27.4,3.4c-6.4,1-13,2.5-18.8,5.4
				C8.9,16.7,4,22.3,2.5,29.7c-0.1,0.5-0.2,0.9-0.2,1.4c3.6,5.3,8.6,8.2,14.8,9.7c0.1,0,0.1,0.3,0,0.3c-5.8,0.1-11.3-2.9-15-7.2
				C2,35,2,36,2,37.1c0,0.9,0.2,2.1,0.2,3c0.4,4.1,1,8.1,1.9,12.1c4.5,12.4,16.4,21.5,29,26c16.6,5.9,35,7.8,52.5,8.7
				c18.3,0.9,36.6,0.1,54.7-2.3c9.6-1.2,19.2-2.9,28.6-4.9c8.3-1.8,17-3.4,24.2-8.1C205.6,63.3,211.2,48.8,208.9,34.7z"/>
			<path id="Path_1_" class="st1" d="M45,73.3c-4.1-1-7.2-3.1-10.8-5.1c-2.9-1.5-5.8-3-8.7-4.6c-6.1-3.3-12.3-7.1-17.3-12
				c-0.4-0.4-1.2,0.1-0.9,0.7c4.3,6.4,8.9,11.7,15.6,15.8c6.2,3.8,14.2,8.3,21.8,7.6C45.9,75.6,46.5,73.7,45,73.3z"/>
			<path id="Path_2_" class="st2" d="M208.9,34.7c-0.1-0.5-0.1-1.1-0.2-1.7c-1,1.2-2.3,2.3-3.6,3.1c-2.8,1.9-5.8,3.3-9,4.4
				c-0.1,0-0.2,0-0.3-0.1c0-0.1,0-0.2,0.1-0.3c2.1-1.2,4.2-2.5,6.2-3.9c2.2-1.6,5-3.4,5.8-6.1c0-0.1,0.1-0.2,0.2-0.3
				c-0.2-1.3-0.6-2.5-1-3.7c-5-15.2-28.1-17.7-42-19.5c-34.3-4.5-69-5.2-103.5-2c-9.2,0.8-18.3,2-27.4,3.4c-6.4,1-13,2.5-18.8,5.4
				c-5,2.5-9.1,6.6-11.4,11.7c0.1,0.5,0.1,1,0.2,1.5c0.9,4.7,5.3,9.3,9.6,13.2c1,0.4,2.1,0.7,3.2,1c0.1,0,0.1,0.3,0,0.3
				c-0.6,0-1.2,0-1.9-0.1c1.8,1.6,3.5,3,4.9,4.3c4,3.8,11.1,9.3,16.8,9.9l10.9,5.5c2.9,1,5.6-0.1,8.5,0.8c2,0.6,3.5,2.4,5.5,2.9
				c2,0.5,4.4-0.6,6.4-0.1c2.2,0.6,3.2,2.8,5.3,3.6c5.6,1.9,9.6-3.1,15-1.9c2.8,0.6,4.3,3.6,7.3,3.8c2.2,0.2,4.8-1.8,6.8-2.3
				c5.6-1.4,8.2,0,13.2,0.5c5.9,0.6,10.3-4,16.1-3.7c4.6,0.2,7.3,2.5,7.5,7.3c0.1,5.2-2.3,6-7,7.7c-11,3.9-22.5,3.8-34.2,3.8
				c-11.5,0-22.4,1.4-33.6,2.2c7,0.8,14.1,1.4,21,1.7c18.3,0.9,36.6,0.1,54.7-2.3c9.6-1.2,19.2-2.9,28.6-4.9
				c8.3-1.8,17-3.4,24.2-8.1C205.6,63.3,211.2,48.8,208.9,34.7z"/>
			<path id="Path_3_" class="st3" d="M208.7,32.9c-1,1.2-2.3,2.3-3.6,3.1c-2.8,1.9-5.8,3.3-9,4.4c-0.1,0-0.2,0-0.3-0.1
				c0-0.1,0-0.2,0.1-0.3c2.1-1.2,4.2-2.5,6.2-3.9c2.2-1.6,5-3.4,5.8-6.1c0-0.1,0.1-0.2,0.2-0.3c-0.2-1.3-0.6-2.5-1-3.7
				c-5-15.2-28.1-17.7-42-19.5c-11.6-1.5-23.2-2.6-34.8-3.2l4.9,3.4c0,0,48.9,13.6,54.4,21.1c5.5,7.5,9.6,18.1-4.5,34.8
				c-11.4,13.5-39.3,20.3-50.6,22.7c1.9-0.2,3.8-0.4,5.8-0.7c9.6-1.2,19.2-2.9,28.6-4.9c8.3-1.8,17-3.4,24.2-8.1
				c12.5-8.2,18-22.7,15.8-36.8C208.9,34.1,208.8,33.5,208.7,32.9z"/>
			<path id="Path_4_" class="st4" d="M208.9,34.7c-0.1-0.5-0.1-1.1-0.2-1.7c-0.8,1-1.7,1.8-2.8,2.5c0.1,0.9,0.1,1.8,0.1,2.7
				c-0.4,11.3-4,24.1-14.6,30.7c-7.9,4.9-30.9,11.4-42.6,14.5c6.8-1.1,13.5-2.3,20.2-3.7c8.3-1.8,17-3.4,24.2-8.1
				C205.6,63.3,211.2,48.8,208.9,34.7z"/>
			<path id="Shape" class="st5" d="M209.8,28.3c-2.4-12.8-17-19.3-29-21.5c-19-3.5-38.6-5.1-57.9-5.9C103,0.1,83.1,0.5,63.2,2.3
				c-9.7,0.9-19.3,2-28.9,3.5c-6.8,1.1-13.7,2.6-19.9,5.7c-6.6,3.4-11.8,9-13.6,16.3c-0.2,1-0.4,1.9-0.5,2.9
				c-0.1,0.2-0.2,0.5-0.1,0.7C0,35.2,0.2,39,1,42.8C0.3,56.2,9.8,68.4,21.2,75.1c16,9.4,36.3,11.7,54.4,13.3
				c20.5,1.7,41.2,1.3,61.6-1.2c10.3-1.2,20.6-2.9,30.8-5.1c8.8-1.8,18.1-3.4,25.8-8.3C209,64.1,215.5,45.3,209.8,28.3z M193.2,71.5
				c-7.2,4.8-15.9,6.4-24.2,8.1c-9.5,2-19,3.7-28.6,4.9c-18.1,2.4-36.4,3.2-54.7,2.3c-17.5-0.9-35.9-2.8-52.5-8.7
				c-12.6-4.5-24.5-13.7-29-26c-0.9-4-1.5-8-1.9-12.1c0-0.9-0.1-2.1-0.2-3c0-1.1,0-2.2,0.1-3.3c3.8,4.3,9.2,7.3,15,7.2
				c0.1,0,0.2-0.2,0-0.3C11,39.2,5.9,36.4,2.3,31.1c0.1-0.5,0.1-0.9,0.2-1.4C4,22.2,8.9,16.7,15.5,13.3c5.8-3,12.4-4.4,18.8-5.4
				c9.1-1.5,18.2-2.6,27.3-3.4c34.5-3.2,69.2-2.5,103.5,2c13.8,1.8,37,4.3,42,19.5c0.4,1.2,0.8,2.5,1,3.7c-0.1,0.1-0.1,0.2-0.2,0.3
				c-0.8,2.7-3.7,4.5-5.8,6.1c-2,1.4-4.1,2.7-6.2,3.9c-0.1,0-0.1,0.1-0.1,0.2c0,0.1,0,0.1,0.1,0.2s0.1,0.1,0.2,0
				c3.2-1.1,6.2-2.6,9-4.4c1.4-0.8,2.6-1.8,3.6-3.1c0.1,0.6,0.2,1.2,0.2,1.7C211.2,48.8,205.6,63.3,193.2,71.5z"/>
		</g>
		<g id="_x32_ndburger-patty" transform="translate(14.000000, 120.000000)">
			<path id="Shape_1_" class="st5" d="M215.8,23.7c0-0.2-0.2-0.5-0.4-0.6c-0.9-3-2.5-5.7-4.5-8.1c-4.9-5.6-12.6-6.6-19.5-7.8
				c-13-2.3-26.2-3.7-39.4-4.1c-13.8-2-27.8-2.5-41.7-2.7C94.7,0.3,79.1,0.9,63.6,2.2C49.7,3.5,35.4,4.8,22.1,9.1
				c-5.4,1.7-11.5,3.8-16,7.4c-3.6,3-4.5,6.4-4.6,10.5c-0.4,2.4-0.6,4.9-0.6,7.3c-0.1,3.3-0.5,7.5,1.4,10.5c1.4,2.1,3.8,3.2,6.1,3.9
				c4.4,1.4,8.9,2.5,13.3,3.8c9,2.6,18,5.3,27.2,7.2c9.1,1.8,18.4,2.9,27.7,3.4c19.2,1.2,38.4,1.3,57.6,0.2
				c17.9-1.1,36.3-2.6,53.8-6.7c8.2-1.9,17.7-4.6,24.4-9.9C218.8,41.8,217,30.5,215.8,23.7z M214.5,37.5c-0.2,2.3-0.4,4.4-1.9,6.3
				c-1.5,1.8-3.7,2.8-5.6,3.9c-6.8,3.5-14,6-21.5,7.4c-16,3.5-32.6,5-48.8,6c-33,2.2-67.7,2.3-99.8-6.2c-8.8-2.3-17.6-4.8-26.3-7.4
				c-1.8-0.4-3.5-1.1-5-2.1c-3-2.2-2.7-5.6-2.7-8.8c0-3.9,0.1-7.7,0.1-11.6c1.5-4.8,4.7-7.9,10-10.4c6.2-2.8,12.6-5,19.3-6.3
				c13.1-2.9,26.7-4,40-4.9c13.7-0.9,27.5-1.3,41.2-1.1c9.4,0.2,18.7,0.7,28,1.3c14.7,1.3,29.4,2.4,43.9,4.7
				c6.7,1.1,14.7,1.5,20.5,5.2c2.9,1.8,5.1,4.6,6.3,7.7c-2.6,4.4-7.1,6.1-11.7,7.7c-5.1,1.8-10.3,3.1-15.6,4.1
				c-0.4,0.1-0.3,0.7,0.1,0.7c6.8-0.4,13.4-1.8,19.8-4.1c3.2-1.2,6.6-3,8.2-6.1c0.6,2,1,4.1,1.5,6.2
				C214.7,32.3,214.7,34.9,214.5,37.5z"/>
			<path id="Path_5_" class="st6" d="M213,23.5c-1.6,3-5,4.8-8.2,6.1c-6.4,2.3-13,3.7-19.8,4.2c-0.4,0-0.4-0.6-0.1-0.7
				c5.3-1,10.5-2.3,15.6-4.1c4.7-1.6,9.1-3.3,11.7-7.7c-1.2-3.2-3.4-5.9-6.3-7.8c-5.9-3.7-13.9-4.1-20.5-5.2
				c-14.6-2.3-29.3-3.4-44-4.7c-9.3-0.5-18.7-1.1-28-1.3C99.8,2.1,86,2.5,72.3,3.5c-13.4,0.9-26.9,2-40,4.9
				c-6.5,1.4-12.9,3.4-19,6.2c2.6,6.6,9.7,9.8,16.5,13.2c5.3,2.7,10.3,5.9,15.7,8.5c11,5.2,20.3,5.6,32.1,5.6
				c10.8,0,21,2.7,31.7,2.7c13.1,0,26.3-3.5,39.2-2.3c4.9,0.5,7,2.8,6.8,8.6c-0.2,3.2-2.6,5.2-5.4,6.1c-2-2.8-2.4-6.6-4.1-9.7
				c-1.3,2.8-0.8,6.7-2.1,9.6c-1.3-1.6-2.1-4-2.8-6c-2.4,1.3-0.8,3-1.6,4.9c-1.1,2.8-2.8,3.4-6,4.4c-2.3,0.7-4.7,1.2-7.1,1.6
				c3.4-0.2,6.9-0.4,10.3-0.6c16.3-1.1,32.9-2.6,48.9-6c7.4-1.5,14.6-4,21.4-7.4c1.9-1,4.2-2.1,5.6-3.9c1.4-1.7,1.7-4,1.9-6.3
				c0.2-2.6,0.2-5.3,0-7.9C214.1,27.6,213.6,25.5,213,23.5z"/>
			<path id="Path_6_" class="st7" d="M8.9,32.8c-1,1.2-2,11-0.8,12.2c0,0,6.6,0.4,6.5,0.5c1.2-0.7,1.7-3.5,2.6-4.6
				c1,2.2,1.6,4.6,2.4,6.8c2.1-0.3,4.3-4.6,6-6.1c0.5,1.2,0.6,4.2,1.4,5.2c0.9,0.9,1.3,0,2.1,0.5c1.8,1.2,3.6,2.2,5.5,3.1
				c2.5,1,6.6,1.3,9.2,1.9c3.2,0.8,4,1.2,5.8-1.9c1,2.8,1.2,5.2,4.1,5.7c2.2,0.4,5.9-2,8.6-1.9c-0.3-1.5-0.9-6.2-2-7.3
				c-1.3-1.5-4.9-1.8-6.8-2.4c-1.4-0.5-2.7-1.7-4.3-1.3c-2.2,0.5-2.3,3-4,4.2c-0.9-1.2-1.7-2.5-2.4-3.9c-5.1,2.8-5-1.1-9.3-2.6
				c-5.8-2-12.5-2.5-17.7-6c-0.5,1.2-1.3,2.2-1.9,3.3C13.6,36.8,13.2,35.4,8.9,32.8z"/>
			<path id="Path_7_" class="st8" d="M214.5,29.7c-0.4-2.1-0.9-4.2-1.5-6.2c-1.6,3-5,4.8-8.2,6.1c-6.4,2.3-13,3.7-19.8,4.2
				c-0.4,0-0.4-0.6-0.1-0.7c5.3-1,10.5-2.3,15.6-4.1c4.7-1.6,9.1-3.3,11.7-7.7c-1.2-3.2-3.4-5.9-6.3-7.8c-5.9-3.7-13.9-4.1-20.5-5.2
				c-14.6-2.3-29.3-3.4-44-4.7c-9.3-0.5-18.7-1.1-28-1.3C99.8,2.1,86,2.5,72.3,3.5c-13.4,0.9-26.9,2-40,4.9
				c-6.7,1.4-13.1,3.5-19.3,6.3c-5.3,2.5-8.6,5.6-10,10.4c0,3.9-0.2,7.7-0.1,11.6c0,3.2-0.2,6.6,2.7,8.8c1.5,1,3.2,1.7,5,2.1
				c8.7,2.6,17.5,5.1,26.3,7.4c32.1,8.5,66.8,8.4,99.8,6.2c16.3-1.1,32.9-2.6,48.9-6c7.4-1.5,14.7-4,21.4-7.4c1.9-1,4.2-2.1,5.6-3.9
				c1.4-1.7,1.7-4,1.9-6.3C214.7,35,214.7,32.3,214.5,29.7z"/>
		</g>
		<g id="lettuce-lower" transform="translate(2.000000, 134.000000)">
			<path id="Path_8_" class="st5" d="M117.4,53.9c-13-0.5-26-0.4-39-1.1c-12.2-0.7-26.8-0.2-37.9-5.8c-0.2-0.1-0.5,0.2-0.2,0.4
				c10.9,5.8,22.9,6.5,35,7.4c14,1,28.2,1.6,42.2,0.5c0.2,0,0.4-0.1,0.6-0.3s0.1-0.4,0-0.6C117.9,54,117.7,53.9,117.4,53.9z"/>
			<path id="Path_9_" class="st5" d="M197.4,47.1c-11.5,1.6-22.9,3.7-34.4,5.2c-10.6,1.4-21.3,2-31.8,3.7c-0.2,0-0.1,0.3,0.1,0.3
				c11.3,0.5,22.9-1,34.1-2.4c10.9-1.2,21.8-3.1,32.4-5.7C198.5,48,198.1,47,197.4,47.1z"/>
			<path id="Path_10_" class="st9" d="M235.8,36c-0.5,0.2-1,0.3-1.5,0.3c-2.8-0.7-5.4-2-7.6-3.8c-2-1.7-4.4-3.1-6.9-3.9
				c-0.2,0-0.4,0-0.4,0.2c0,0.2,0,0.4,0.2,0.4c4.4,1.5,7.4,6.9,11.7,8.5c0,0.1-0.1,0.1-0.1,0.2c-0.5,1.6,1.1,3,2,4
				c1.7,1.8,3,3.3,0.5,5c-2.8,1.9-4.2-0.3-6.9-1.4c-1.5-0.7-3-1.2-4.6-1.5c-1.9-0.2-3.8,0.4-5.1,1.8c-1.9,1.7-2.1,2.9-4.8,3.5
				c-1.8,0.4-3.7-0.1-5-1.3c0-0.1-0.1-0.1-0.1-0.2c-1.9-2-3.1-4.5-5-6.4c-2.4-2.4-5.1-3.9-7-7c-0.1-0.2-0.4-0.2-0.5-0.1
				c-0.2,0.1-0.2,0.3-0.2,0.5c1.6,3.1,4.1,4.9,6.3,7.5c1,1.2,1.8,2.6,2.7,3.9c0,0,0,0.1-0.1,0.1c-0.5,1.7-0.8,3.5-0.8,5.3
				c-3.4-1.1-7.1-1.9-10.5-0.3c-2.1,1-3.6,3-5.6,4.2c-2.1,1.2-5.7-0.5-6.3-0.8c-0.5-0.2-1-0.4-1.5-0.5c-1.8-2.8-3.4-5.2-4.3-8.5
				c0-0.1-0.1-0.2-0.3-0.3c-0.1,0-0.3,0-0.4,0.1c-0.1,0.1-0.1,0.2-0.1,0.4c0.5,2.8,1.4,5.6,2.7,8.2c-0.2,0-0.3,0.1-0.4,0.2l-0.4,0.1
				c-0.9,0.4-1.1,0.9-1.8,1.4c-0.3,0.2-0.4,0.7-0.7,1c-3.6,3-4.9,1.1-7-0.6c-2.1-1.8-7.1-4.4-8.7-0.2c-0.6,1.6,0.5,2.2,0.8,3.4
				c1.6,7-4.9,4.2-8.8,3c-1.4-3.5-1.9-7.2-3.5-10.6c-2-3.9-4.3-7.6-6.9-11.1c-0.2-0.3-0.7,0-0.5,0.3c2.5,4,4.7,8.3,6.4,12.7
				c1,2.7,1.4,5.6,2.5,8.2c-2.5-0.1-3.5,1.3-5.7,2.3c-3.9,1.9-4.1-1.3-7-2c-2-0.5-3.9,0.7-5.4,1.8c-2,1.4-4.3,2.9-6.5,0.8
				c-1-0.9-1.4-2-2.4-2.8c-1.3-1-3-1.3-4.5-0.8c-3.5,0.8-5.8,3-9.6,3c-2.8,0-5.1-0.4-7.8,0.6c-1.2,0.5-2.2,1.2-3.3,1.7
				c-3.2,1.6-5.8,1.4-8-1.7c-0.8-1.3-1.9-2.4-3.2-3.2c1.6-3.6,2-7.8,2.1-11.7c0-0.6-0.9-0.6-0.9,0c-0.5,3.9-1.9,7.5-3,11.3
				c-1.9,0-3.5,1.2-5.4,1.4c-3,0.4-5.2-2-8.1-1c-2.2,0.8-4.4,1.9-6.5,0.1c-0.9-0.7-1.3-1.9-2.3-2.6l-0.2-0.1
				c0.6-1.2,1.5-2.1,2.1-3.3c0.5-1.2,0.9-2.5,1-3.8c0.7-4.2,1.7-8.3,3.1-12.4c0.2-0.5-0.7-0.8-0.8-0.2c-1.5,4-2.8,8.1-3.9,12.2
				c-0.6,2.3-2.2,4.5-2.7,6.8c-0.9-0.3-1.9-0.2-2.8,0.2c-1.2,0.5-2,1.7-3.2,2.2c-4.6,2-4.8-2.7-4.8-5.3c0-0.4-0.2-0.7-0.5-0.8
				c-0.3-0.1-0.7-0.1-0.9,0.2c-1,0.8-1.9,1.7-2.7,2.7C43.1,58,42.2,60,42.1,60c-1,0.1-2.3-3.1-3.3-3.6c-1.4-0.8-2.7-0.4-4.1-0.2
				c-2.3,0.4-4.2,0.8-6-1c-1.8-1.9-1.9-4.9-2.1-7.4c0,0,0-0.1,0-0.1c0.5-0.6,1.1-1.2,1.6-1.8c0.6-0.9,1.2-1.8,1.6-2.8
				c1-2.1,1.9-4.4,3.8-5.9c0.5-0.4,0-1.2-0.5-0.8c-2,1.5-3.2,3.5-4.4,5.6c-1,1.6-2.5,3.2-3.2,5c-2,0.1-2.9,1.7-4.8,2.1
				c-3,0.8-3.5-3-5.6-4c-1.8-0.9-3.8-0.5-5.6-0.6C7.1,44.6,6,43.1,6.1,40l0.3-0.7l0.1-0.1c0-0.1,0.1-0.2,0.1-0.3c0-0.2,0-0.5,0-0.7
				c0.8-2.1,5.9-4.2,7.3-5.1c2.1-1.4,4.1-2.9,6.1-4.5c0.4-0.3-0.1-0.9-0.5-0.7c-3.4,2.6-7.1,4.8-11,6.5c-1.2,0.4-2.3,1.1-3.3,1.9
				c-1-0.3-2.2-0.3-2.6-1.7c-0.6-2.1,2.5-4.4,2.5-6.5s-3.5-5-1.1-6.9c0.8-0.6,5.1,0.2,6.2,0.2c2.1,0.1,4.1,0.1,6.2,0.1
				c0.4,0,0.4-0.5,0-0.6l-2.6-0.3c0.9-0.5,1.7-1.2,2.4-1.9c2.1-2.5,1.6-3.5,6.2-2.9c1.2,0.2,1.6,0.7,2.8,0.5c1.3-0.3,2.4-1,3.2-2
				c0.8-0.8,1.5-1.9,2.4-2.7c2.5-2.2,4.5-1.3,7.2-0.3c1.9,0.8,4,1,6,0.5c2.1-0.6,4-1.8,6.1-2.7C52.9,8,54.5,8.2,57,9.9
				c0.6,0.6,1.4,1,2.2,1.3c4,1.1,5.6-3.5,8.8-4.7c2.5-1,4.3,1.5,6.6,0.4c2.7-1.2,2.6-5.5,6.9-3.4c1.6,0.8,2.7,2.2,4.6,2.5
				c1.3,0.1,2.6,0,3.8-0.4c2.3-0.6,4.7-0.7,7-0.4c3.5,0.5,7.3,0.6,9.3-2.3c3.4,3.1,8.1-1.6,12.1-0.8c2.8,0.5,4.8,2.9,7.6,3.2
				c0.9,0,1.8-0.1,2.7-0.3c1.9-0.3,3.9-0.2,5.8,0.3c2,0.5,2.9,1,4.8-0.1c2.6-1.4,1.8-3,6.7-2.5c1.8,0.2,3.7,1.2,5.5,1.6
				c3.5,0.7,7,0.9,10.5,0.4c4-0.6,8.7-3.4,12.4-0.4c1.5,1.2,2.4,2.7,4.4,3.2c1.2,0.2,2.4,0.1,3.5-0.3c0.7-0.2,1.4-0.4,2.2-0.7
				c1.8-0.2,3.6,0.5,4.8,1.8c1.8,0.9,3.9,1.1,5.8,0.7c4-0.8,7.1,0.4,10.6,2.1c2.2,1.2,4.6,2.2,7,2.9c2.6,0.6,7.1-0.8,8.8,1.3
				c1.4,1.8,1.6,3.9,3,5.6c-0.2,0.2-0.4,0.5-0.4,0.8c0,0.3,0.2,0.6,0.5,0.7c1.3,0.7,2.6,1.3,4,1.7c1.6,0.4,3.3,0.1,4.8,0.5
				c1.3,0.4,3.2,2.6,3.1,3.7c0,0.2-0.5,0.4-0.5,0.7c-0.1,0.8-0.5,1-0.3,1.8s0.6,0.9,1,1.4c0.2,0.4,1.2,0.5,1.4,0.8
				C238.4,34.3,236.5,35.8,235.8,36z"/>
			<path id="Path_11_" class="st1" d="M20.5,23.6c-4.5-1.5-9.3-0.2-13.9-0.9c-0.6-0.1-1,0.7-0.4,1c4.3,2.5,9.3,1.6,14,2
				C21.5,25.9,21.6,23.9,20.5,23.6z"/>
			<path id="Path_12_" class="st1" d="M29,26.5C21.8,30,15.1,34.5,9.3,40c-0.2,0.2-0.2,0.5,0,0.7C9.4,41,9.8,41,10,40.9
				c6.8-3.9,13.5-8.4,20-12.7c0.4-0.3,0.5-0.9,0.2-1.3S29.4,26.4,29,26.5z"/>
			<path id="Path_13_" class="st1" d="M37.5,36.4c-3,4.7-6.6,9.4-8.5,14.8c-0.5,1.3,1.4,1.9,2.2,0.9c3.2-4.5,5-10.1,7.3-15.1
				c0.2-0.3,0.1-0.7-0.2-0.8C38,36,37.7,36.1,37.5,36.4z"/>
			<path id="Path_14_" class="st1" d="M37.1,46.3l-3,5.8c-0.1,0.2-0.1,0.5,0.1,0.7c0.2,0.2,0.4,0.3,0.7,0.3c0.3,0,0.5-0.2,0.6-0.5
				l2.3-6.1C38,46.2,37.3,45.9,37.1,46.3z"/>
			<path id="Path_15_" class="st1" d="M68.5,43.2c-0.8,2.7-1.4,5.4-2.2,8c-0.7,2.4-1.6,4.9-1.5,7.4c0,1.4,2.2,2.2,2.8,0.8
				c2.1-4.6,1.9-11,2.1-16c0-0.3-0.2-0.6-0.6-0.7S68.6,42.9,68.5,43.2z"/>
			<path id="Path_16_" class="st10" d="M229.8,29.9c-0.4-1.1,0.5-2.5,0.4-2.9c-1-3-4.6-0.8-7.6-1.6c-4.7-1.2-2.5-6.1-5.3-8.9
				c-2.7-2.8-7.9-0.7-11.2-1.1c-2.9-0.3-3.7-1.7-6.2-2.5c-3.4-1.1-6.8,0.9-10.1,0.3c-3.4-0.5-3.6-1.7-7.1-1c-2,0.4-4.6,1.6-6.8,0.9
				c-1.8-0.6-2.8-2.8-4.5-3.6c-4.2-2-7.2,0.3-10.7,2.3c-4.4,2.6-8.6,1.1-13-0.6c-1.8-0.7-2.6-1.7-4.7-0.8s-1.4,2.2-2.8,3.6
				c-5,4.9-7.7-1.7-12.3-2.6c-3.9-0.8-4.6,1.6-8.3-1.6c-2-1.8-2.6-3.4-5.7-2.8c-3.9,0.8-4,3.5-5,6.6s-0.2,2.5-3.8,2.3
				c-0.7,0-1.4-0.1-2-0.1c-0.2-0.3-0.4-0.5-0.7-0.7c-1.7-1.4-1.9-1.2-4.1-1.7c-2.5-0.6-4.8-1.2-7.4-1c-4.4,0.4-9.8,3.1-11.7,7.4
				c-1.1,2.7-0.3,4.6-2.3,7c-1.5,1.8-6.7,7.2-1.3,8.7c1-1,2.6-1.4,3.9-0.9c2.6,1.5,0.8,3.9,0.5,5.9s0.2,4-0.3,6
				c-0.6,2.1-3,4.4-1.7,6.8c1.4,2.7,5.5,2.3,7.1,0c2.1-2.9,1.3-7.3,4.8-9.4c1.3-0.8,3-0.2,4.2-0.8c1.2-0.7,1.2-2,2.4-2.5
				c2.7-1.1,4.8,0.8,6.5,2.8c-0.1,3.7-1.7,7.2-2.5,10.7c-0.2,1-1.3,4.8-0.3,5.7c2.2,1.8,4.3-2.4,4.7-3.8c0.6-1.9,1.2-8.7,5.3-7
				c1.3,0.5,1.2,2.1,2.2,3c1.4-1.4,1.9-4.3,3.8-5.1c2.6-1.1,2.8,0.6,4.4,1.7l-0.4,0.2c1.2,2.7,0.7,10.8,4.5,11.5
				c4,0.8,3.8-5.1,6.7-5.8c2.5-0.6,2.9,2.6,4.7,3.7c2.7,1.5,2.6-0.8,4.5-0.8c1.6,0,2.4,1.9,4.1,1.7c2.5-0.2,1.9-2.7,1.2-4.8
				c1.2,1.2,3,1.6,4.6,1c4.3-1.7,0.8-10.1,7.6-9.3c1.7,0.4,3.2,1.1,4.6,2.2c0.9,0.4,1.7,1,2.5,1.5c0.8,0.8,0.8,2.8,2.2,3.1
				c3.7,0.8,0.6-6.3,4.4-6.8c5.1-0.7,4.5,8.2,8.8,9.4c2.9,0.8,7-0.1,8.4-2.9c1.2-2.6-0.1-5.8,3.5-6.8c1.4-0.4,2.5,0.5,3.8,0.1
				c1.1-0.8,2.1-1.6,3-2.6c1.2-2.4-2.9-5-3.7-7.7c3.1,2,6.3,9.3,9.8,9.9c0.5,2.7,2.2,1.1,2.9-0.5c1.6-3.8-1.5-5.2,4-5.5
				c2.4-0.1,5.1-0.5,7.4,0c2.5,0.6,5.5,2.3,8.1,2.2c1-5.3-1.8-3.3-4.7-5.8c-2.3-2-1.6-4.6,1.6-4.2c2.9,0.4,6.6,6.4,9.1,1.9
				C233.1,32.5,230.3,31.2,229.8,29.9z"/>
			<path id="Path_17_" class="st5" d="M238.5,31.2c-1.4-1.9,1.8-4-0.2-6.6c-0.8-1-2-1.6-3.3-1.8c-3.4-0.6-6.3-0.3-9.6-2
				c-1.1-0.6-2.1,1.1-1,1.7c1.3,0.7,2.6,1.3,4,1.7c1.5,0.4,3.3,0.1,4.8,0.5c1.3,0.4,3.2,2.6,3.1,3.7c0,0.2-0.5,0.4-0.5,0.7
				c-0.1,0.8-0.5,1-0.3,1.8s0.6,0.9,1,1.4c0.2,0.4,1.2,0.5,1.4,0.8c0.6,1.2-1.3,2.6-2.1,2.9c-1.4,0.6-3.9,0.1-4.5,2
				c-0.5,1.6,1.1,3,2,4c1.6,1.8,2.9,3.3,0.5,5c-2.8,1.9-4.2-0.3-6.9-1.4c-1.5-0.7-3-1.2-4.6-1.5c-1.9-0.2-3.8,0.4-5.1,1.8
				c-1.9,1.7-2.1,2.9-4.8,3.5c-3.2,0.8-5.1-1.2-7.2-3.5c-0.2-0.3-0.6-0.4-1-0.3c-0.4,0.1-0.7,0.4-0.7,0.8c-0.5,1.7-0.8,3.5-0.9,5.3
				c-3.4-1.1-7.1-1.9-10.5-0.3c-2.1,1-3.6,3-5.6,4.2c-2.1,1.2-5.7-0.5-6.3-0.8c-1.1-0.6-2.4-0.8-3.6-0.6c-0.1-0.1-0.2-0.1-0.3-0.1
				c-0.1,0-0.2,0.1-0.3,0.2l-0.4,0.1c-0.9,0.4-1.1,0.9-1.8,1.4c-0.3,0.2-0.4,0.7-0.7,1c-3.6,3-4.9,1.1-7-0.7
				c-2.1-1.8-7.1-4.4-8.7-0.2c-0.6,1.5,0.5,2.2,0.8,3.4c1.9,8.4-7.9,2.7-10.7,2.6c-2.6-0.1-3.6,1.3-5.8,2.3c-3.9,1.9-4.1-1.3-7-2
				c-2-0.5-3.9,0.7-5.4,1.8c-2,1.4-4.3,2.9-6.5,0.8c-1-0.9-1.4-2-2.5-2.8c-1.3-1-3-1.3-4.5-0.8c-3.5,0.8-5.8,3-9.6,3
				c-2.8,0-5.1-0.4-7.8,0.6c-1.2,0.5-2.2,1.2-3.3,1.7c-3.2,1.6-5.8,1.4-8-1.7c-1-1.4-2-2.8-3.6-3.4c-2.5-0.8-4.5,0.9-6.8,1.2
				c-3,0.4-5.2-2-8.1-1c-2.2,0.8-4.4,1.9-6.5,0.1c-0.9-0.7-1.3-1.9-2.3-2.6c-1.2-1-2.8-1.2-4.2-0.6c-1.2,0.5-2,1.7-3.2,2.2
				c-4.6,2-4.8-2.7-4.8-5.3c0-0.4-0.2-0.7-0.5-0.8c-0.3-0.1-0.7-0.1-0.9,0.2c-1,0.8-1.9,1.7-2.7,2.7C43.1,58,42.2,60,42.1,60
				c-1,0.1-2.3-3.1-3.3-3.6c-1.4-0.8-2.7-0.4-4.1-0.2c-2.3,0.4-4.2,0.8-6-1c-1.8-1.9-1.9-4.9-2.1-7.4c0-0.5-0.4-0.8-0.8-0.8
				c-2.2,0-3.2,1.7-5.1,2.2c-3,0.8-3.5-3-5.6-4c-1.8-0.9-3.8-0.5-5.6-0.6c-2.4,0.1-3.5-1.4-3.3-4.5l0.4-1.1c-0.1-0.4,0.2-0.9,0-1.4
				c-0.7-1.9-3.3-0.7-3.9-2.9s2.5-4.4,2.5-6.5s-3.5-5-1.1-6.9c0.8-0.6,5.1,0.2,6.2,0.2c2.1,0,4.1,0.1,6.2,0.1c0.4,0,0.4-0.5,0-0.6
				c-2.6-0.3-5.1-0.6-7.7-0.8c-1.7-0.1-4-0.7-5.7-0.4C1,20.1,0,21.3,0.6,23.3s1.6,2.3,1.9,4.4c0.3,2.6-1,3.2-1.5,5.4
				c-0.5,1.6,0.1,3.3,1.3,4.4c1,1,0.5-0.6,1.4,1.4c1.2,2.7-0.1-0.2,0,2.2c-0.1,0.8,0,1.5,0.3,2.3c1,2,3.5,2.6,5.5,2.8
				c1.3,0.1,2.8-0.2,4,0.2c1.2,0.4,2.1,1.9,2.9,2.8c0.7,0.8,0.9,1.6,2,2c2.5,0.9,4.3-1.9,6.7-2.5c0.3,4,1.4,8.9,6,9.7
				c3.4,0.6,5.6-1.8,8.6,1.7c1,1.2,1.2,2.2,3,2.1c0.4,0,0.7-0.3,0.8-0.6c0.5-1.5,1.4-2.9,2.5-4c0.3,2.9,1.4,6.1,4.8,5.9
				c0.8-0.1,1.5-0.3,2.2-0.7c1.8-1,2.2-2,4.5-1.8c2.4,0.2,2.1,0.6,3.4,2.2c0.6,0.8,1.4,1.4,2.2,1.8c2.2,0.9,3.3-0.8,5.3-1.2
				c3.1-0.7,5.7,1.5,8.8,0.7c2.3-0.6,4.7-1.8,7.1-0.3c0.9,0.6,1.7,2.3,2.4,3.2c1.3,1.6,2.8,2.7,5,2.6c2.8-0.2,5.1-2.3,7.6-3.3
				c3.6-1.4,7.4,0.2,11.1-0.9c1.1-0.4,2.2-0.9,3.3-1.5c3-1.4,4.9-1.2,7.2,1.1c1.1,1.1,1.8,2.3,3.4,2.7c2.9,0.7,4.8-1.8,7-3.1
				c3.6-2.2,4.6,2.6,7.9,2.6c2.7,0,4.6-2.9,7.3-3.3c3.8-0.6,6.9,2.5,10.7,1.9c1.8-0.2,3.4-1.4,4.1-3.1c0.3-0.8,0.3-1.7,0-2.5
				c-0.1-0.4-0.6-0.8-0.7-1.1c-0.2-0.3-0.5-0.6-0.8-0.9c-0.1-3.2,1.8-2.9,4.5-1.3c1.2,0.4,2.6,2.4,3.9,2.9c0.9,0.4,1.8,0.6,2.8,0.5
				c2.9-0.4,4-4,6.5-4.5c2.4,2.2,5.9,2.8,8.9,1.8c2.3-0.9,3.8-2.8,5.9-4.1c3.6-2.2,7.6-0.9,11.2,0.3c0.3,0.1,0.7,0,0.9-0.2
				c0.3-0.2,0.4-0.5,0.4-0.8c-0.1-1.5,0.1-3,0.4-4.4c2.1,2,4.6,3.8,7.6,3.3c5.1-0.9,5.1-7.3,11.7-5.3c3.4,1,6.9,3.9,10.5,1.4
				c2.4-1.6,2.6-4.2,0.9-6.4c-0.3-0.4-1.2-0.9-1.4-1.4c-1.2-2.6,0.6-2,1.9-2.3c1.4-0.3,3-0.8,3.9-2.2
				C241.7,33.2,239.7,32.9,238.5,31.2z"/>
			<path id="Path_18_" class="st5" d="M231.2,22.4c-2.8-0.2-5.3-1.9-6.6-4.4c-0.4-1.2-1-2.4-1.5-3.6c-0.6-1.1-1.6-1.8-2.8-2.1
				c-2.7-0.6-5.3,0.6-8.2-0.3s-5.3-2.5-8-3.6c-2.1-1-4.5-1.5-6.8-1.5c-1.1,0-1.5,0.3-2.7,0.4c-5.4,0.5-3.9-1.1-6.8-2.3
				c-1.8-0.7-3.2-0.2-5,0.2c-3.1,0.7-4.2,0.5-6.8-1.7c-0.7-0.7-1.4-1.3-2.3-1.8c-2.1-1.1-4.2-0.6-6.5,0c-3.6,1.2-7.4,1.7-11.3,1.6
				c-5.2-0.3-11.1-4.5-15.9-1.1c-2.2,1.6-3,1.8-5.7,1.1c-0.8-0.4-1.6-0.7-2.5-0.9c-0.9,0-1.8,0.2-2.7,0.5c-2.7,0.5-4,0.6-6.5-0.6
				c-1.7-0.9-3.3-1.9-5.3-2c-3-0.1-8.4,4.3-10.7,0.7c-0.2-0.3-0.6-0.5-0.9-0.4c-0.4,0-0.7,0.3-0.8,0.6c-1.8,4.4-7.3,2.2-10.6,2
				s-6.6,2-9.7,0.6c-2.7-1.3-4.8-4.5-7.9-2.2c-0.7,0.5-0.9,1.2-1.4,1.7c-1.5,1.4-2.7,1.5-4.6,1.3c-1-0.3-2.1-0.2-3.1,0.1
				c-1.6,0.6-2.8,2-4.1,3.1S61,9.9,58.9,9c-1-0.4-1.9-1.6-3-2.1c-3.4-1.6-6.8,0.7-9.8,2c-3.8,1.8-5.8,0.9-9.6-0.2
				C35,8,33.3,7.9,31.8,8.5c-1.4,0.7-2.7,1.8-3.6,3.1c-0.9,1-2,2.6-3.3,2.9c-1.3,0.3-2.9-1.3-4.1-1.3c-1.3-0.1-2.5,0.3-3.5,1.1
				c-1.5,1.3-4.4,8.4-7.3,5.4c-0.2-0.2-0.6,0.1-0.4,0.3c1.9,2.6,4.9,0.7,6.6-1.2c2.1-2.5,1.6-3.5,6.2-2.9c1.2,0.2,1.6,0.7,2.8,0.5
				c1.3-0.3,2.4-1,3.2-2c0.8-0.8,1.5-1.9,2.4-2.7c2.6-2.2,4.5-1.3,7.2-0.3c1.9,0.8,4,1,6,0.5C46.1,11.3,48,10,50,9.2
				c2.8-1.2,4.4-1.1,6.9,0.7c0.6,0.6,1.4,1,2.2,1.3c4,1.1,5.6-3.5,8.8-4.7c2.5-1,4.3,1.5,6.6,0.5c2.7-1.2,2.6-5.5,6.9-3.4
				c1.6,0.8,2.7,2.2,4.6,2.5c1.3,0.1,2.6,0,3.8-0.4c2.3-0.6,4.7-0.7,7-0.4c3.5,0.5,7.3,0.6,9.3-2.3c3.4,3.1,8.1-1.6,12.1-0.9
				c2.8,0.5,4.8,2.9,7.6,3.2c0.9,0,1.8-0.1,2.7-0.3c1.9-0.3,3.9-0.2,5.8,0.3c2,0.5,2.9,1,4.8-0.1c2.6-1.4,1.8-3,6.7-2.5
				c1.8,0.2,3.7,1.2,5.5,1.6c3.5,0.7,7,0.9,10.5,0.4c4-0.6,8.7-3.4,12.4-0.4c1.5,1.2,2.4,2.7,4.4,3.1c1.2,0.2,2.4,0.1,3.5-0.3
				c0.7-0.2,1.4-0.4,2.2-0.6c1.8-0.2,3.6,0.5,4.8,1.8c1.8,0.9,3.9,1.1,5.8,0.7c4-0.8,7.1,0.4,10.6,2.1c2.2,1.2,4.6,2.2,7,2.9
				c2.6,0.6,7.1-0.8,8.8,1.3c1.7,2.2,1.6,4.6,3.8,6.5c1.7,1.4,3.8,2.2,6,2.2C232.3,24.1,232.2,22.5,231.2,22.4z"/>
			<path id="Path_19_" class="st5" d="M19.4,27.9c-3.4,2.6-7.1,4.8-11,6.5c-2.1,0.9-4.6,1.9-3.8,4.7c0.3,1,1.9,0.8,1.8-0.2
				c-0.2-2.3,5.8-4.7,7.4-5.8c2.1-1.4,4.1-2.9,6.1-4.5C20.2,28.2,19.8,27.6,19.4,27.9z"/>
			<path id="Path_20_" class="st5" d="M33,36.3c-2,1.5-3.2,3.5-4.5,5.6s-3.3,3.9-3.6,6.3c-0.1,0.7,0.9,0.7,1.1,0.2
				c0.4-1,1.4-1.7,2-2.6c0.6-0.9,1.2-1.8,1.6-2.8c1-2.1,1.9-4.4,3.8-5.9C34,36.8,33.5,36,33,36.3z"/>
			<path id="Path_21_" class="st5" d="M64.8,39.5c-1.5,4-2.8,8.1-3.9,12.2c-0.7,2.8-3,5.5-2.8,8.5c0,0.5,0.9,0.7,1,0.1
				c0.3-1.8,1.7-2.9,2.5-4.5c0.5-1.2,0.9-2.5,1-3.8c0.6-4.2,1.6-8.3,3-12.3C65.8,39.2,65,39,64.8,39.5z"/>
			<path id="Path_22_" class="st5" d="M149.6,63.1c-1.7-3.7-2.1-7.7-3.8-11.4c-2-3.8-4.3-7.5-6.9-11c-0.2-0.3-0.7,0-0.5,0.3
				c2.5,4,4.7,8.3,6.4,12.7c1.2,3.4,1.6,7.1,3.4,10.2c0.2,0.4,0.7,0.5,1.1,0.3C149.7,64,149.8,63.5,149.6,63.1z"/>
			<path id="Path_23_" class="st5" d="M207.2,47.8c-1.9-2-3.1-4.5-5-6.4c-2.4-2.4-5.2-3.9-7-7c-0.1-0.2-0.4-0.2-0.5-0.1
				s-0.2,0.3-0.2,0.5c1.6,3.1,4.1,4.9,6.3,7.4c1.9,2.2,2.8,5.2,5.6,6.6c0.3,0.2,0.7,0.1,0.9-0.2S207.5,48.1,207.2,47.8z"/>
			<path id="Path_24_" class="st5" d="M235.2,36.6c-3.1-0.6-6.1-2-8.6-4c-2-1.7-4.4-3.1-6.9-3.9c-0.2,0-0.4,0-0.4,0.2
				c0,0.2,0,0.4,0.2,0.4c5.6,1.9,9,10.1,15.6,8.9c0.3-0.1,0.6-0.4,0.6-0.8C235.8,37,235.6,36.7,235.2,36.6z"/>
			<path id="Path_25_" class="st5" d="M179.2,55c-1.9-3.1-3.8-5.7-4.8-9.4c-0.1-0.2-0.3-0.3-0.5-0.3s-0.3,0.3-0.3,0.5
				c0.7,3.5,1.8,7.5,4.1,10.3C178.4,57,179.7,55.9,179.2,55z"/>
			<path id="Path_26_" class="st5" d="M85,50c-0.5,4.1-2,7.7-3.1,11.7c-0.3,1,1.2,1.6,1.6,0.7c1.9-3.8,2.3-8.2,2.4-12.3
				C86,49.4,85.1,49.5,85,50z"/>
		</g>
		<g id="tomatoe" transform="translate(12.000000, 116.000000)">
			<path id="Path_27_" class="st5" d="M53.7,42.7c-7-2.5-14.4-2.4-21.6-3.7c-7.5-1.4-14.4-5.1-21.8-6.7c-0.1,0-0.2,0-0.3,0.1
				c0,0.1,0,0.2,0.1,0.3c6.5,3.6,13.6,6.1,20.9,7.6c7.5,1.4,15.2,0.7,22.6,2.8C53.8,43.1,53.9,42.8,53.7,42.7z"/>
			<path id="Path_28_" class="st5" d="M113.4,45.5c-15.3,0.4-30.6,0.6-45.9-1.4c-0.4,0-0.4,0.6-0.1,0.7c15.1,3,30.8,4.2,46.1,1.7
				C114.2,46.4,114,45.4,113.4,45.5z"/>
			<path id="Path_29_" class="st5" d="M177.6,38.5c-15.7,2.9-31.6,5.6-47.5,7.1c-0.4,0-0.4,0.6,0,0.6c16.3-0.4,32.1-2.2,47.8-6.8
				c0.2-0.1,0.4-0.3,0.3-0.6S177.9,38.5,177.6,38.5z"/>
			<path id="Path_30_" class="st11" d="M142.3,14.3c-0.7,0.1-1.4,0.5-1.9,1c-0.2,0.3-0.9,1.5-0.6,1.9c0.1,0.2,1.7-0.1,1.9-0.2
				c1-0.2,3.3-0.6,2.7-2.1C144,14.2,143.2,14.2,142.3,14.3z"/>
			<path id="Path_31_" class="st11" d="M117.7,26c-0.8,0.4-1.7,0.9-2.5,1.4c-1.5,0.9-4,2-5.1,3.4c-1,0.5-0.9,1.2,0.4,2.2
				c1,0,1.9-0.3,2.7-0.9c1.1-0.7,2.1-1.6,3-2.6c1.3-1.2,2.5-2.5,3.4-4c-0.5,0.2-0.9,0.4-1.4,0.6C118.1,26.2,117.8,26.2,117.7,26z"/>
			<path id="Path_32_" class="st11" d="M122.5,13.4c-1-0.2-1.9,0.4-1.5,1.8c0.2,1,0.7,1.9,1.3,2.7c0.2,0.4,0.2,0.3,0.2-0.1
				c0.2-0.3,0.3-0.6,0.4-0.9c0.2-0.5,0.3-1,0.4-1.4c0.1-0.4,0.2-0.8,0.2-1.3C123.4,13.8,122.9,13.6,122.5,13.4z"/>
			<path id="Shape_2_" class="st12" d="M159.4,12.5c-0.1-0.1-0.2-0.2-0.3-0.3c-1.9-1.9-4.4-3.3-7-4c-9.7-2.8-20.9-1.5-30.9-1
				c-10.5,0.6-23.2,1.2-31.6,8.2c-6.9,5.7-8,13.3-5.6,20.7c1.1,2.9,3.1,5.2,5.8,6.7c3.3,1.7,7.2,2.3,10.7,3c8,1.8,16.3,2.6,24.5,2.5
				c7.6-0.2,15.2-1.7,22.3-4.5c5.9-2.4,22-6.5,16-24.4C162.6,16.9,161.3,14.5,159.4,12.5z M117,38.8c-10,1.5-22.4-0.7-30.4-7
				c-0.1-0.1,0-0.2,0.1-0.2c4.8,1.2,9.4,3.1,14.3,4.2c5.3,1.1,10.6,1.8,16,2.2C117.3,38,117.4,38.7,117,38.8z M110.7,19.5
				c0.1,0,0.2,0,0.3,0.1c0.4,0.2,0.8,0.5,0.9,1c0.3,0.6,0.3,1.3-0.1,1.9c-0.9,1.5-3.2,1.4-4.7,1.5c-2.9,0.2-6.6,0.6-9.4-0.1
				c-1-0.3-2-0.8-2-2c0-0.9,0.7-1.4,1.4-1.7c2.4-0.9,5.7-0.8,8.2-1C107.1,19,108.9,19.1,110.7,19.5L110.7,19.5z M109.1,13.9
				c0.3-0.2,0.8-0.1,1.2,0c0.9,0.2,1.9,0.4,2.8,0.7c0.6,0.2,1.1,0.5,1.6,0.8c0.6,0.2,1.1,0.6,1.3,1.2c0.3,0.7,0.7,2.4,0.2,3.1
				c-0.8,1-2.3-0.3-3-0.8c-0.7-0.5-1.4-1.1-2.2-1.6c-0.6-0.4-1.2-0.8-1.7-1.2C108.8,15.5,108.5,14.3,109.1,13.9L109.1,13.9z
				 M99.7,25.9c0.7-0.1,1.5-0.2,2.2-0.3c0-0.1,0.1-0.1,0.2-0.1c1.2-0.2,7.6-1.6,6.1,1.6c-0.5,1.1-2.3,1.7-3.4,2.1
				c-2,0.8-4.2,1.5-6.3,2c-1.2,0.2-2,0.2-2.9-0.8c-0.5-0.7-1.2-2.2-0.7-3C95.7,26.3,98.5,26.1,99.7,25.9L99.7,25.9z M121.2,24.8
				c-0.9,3.3-8.7,12.6-12.6,8.7c-1.6-1.6,0.4-3,1.6-4c3-2.5,6.5-4.4,10.3-5.5c0.1,0,0.1,0,0.2,0c0.2,0,0.4,0.1,0.5,0.3
				C121.2,24.4,121.2,24.6,121.2,24.8z M122.6,19.2c-0.8,0.2-1.3-0.7-1.6-1.3c-0.6-1.1-1-2.2-1.1-3.4c-0.1-0.6,0.2-1.3,0.7-1.6
				c0.5-0.4,1.1-0.5,1.8-0.4c0.1,0,0.2,0,0.3,0c0.6,0.3,1.4,0.6,1.5,1.4c0.1,1.1-0.1,2.2-0.5,3.2C123.6,17.9,123.3,19,122.6,19.2
				L122.6,19.2z M155.4,31c-7.6,7.5-21.1,8.9-31.1,6.5c-0.2-0.1-0.1-0.4,0.1-0.3c5.6,0.8,12.6-0.5,18-1.6c4.5-0.8,8.8-2.5,12.6-5.1
				C155.3,30.4,155.6,30.8,155.4,31L155.4,31z M142.6,18.2c-1.3,0.3-4.6,1-4.2-1.3c0.2-1,0.7-1.8,1.5-2.5c0.8-0.6,1.9-0.7,2.8-1.1
				c0.2-0.1,0.3,0,0.5,0.1c1-0.2,1.9,0.3,2.3,1.2C146.3,16.8,144.4,17.8,142.6,18.2L142.6,18.2z M147.7,25.1
				c-0.7,2.1-5.8,1.9-7.5,1.9c-1.6,0-7.1-0.1-7.6-2c-0.1-0.2,0-0.5,0.2-0.6c0.8-0.3,1.7-0.6,2.6-0.8c1.4-0.5,2.8-1,4.1-1.5
				c1.5-0.6,3.6-1.6,5.4-1.3C146.4,21,148.2,23.5,147.7,25.1L147.7,25.1z M133.9,18.2c-2.8,1.9-5.5,3.7-8.9,3.9
				c-0.2,0-0.4-0.1-0.5-0.3c-0.1-0.2,0-0.4,0.1-0.5c0.6-0.6,1.2-1.1,1.8-1.7c2-2.7,4.5-5,7.2-7c1.3-0.9,4.6-1.8,5.3,0.5
				C139.5,15.4,135.1,17.3,133.9,18.2L133.9,18.2z M131.3,28.8c-0.1,1.1-1.3,1.7-2.3,2c-0.4,0.1-0.8,0.2-1.1,0.1
				c-0.1,0.1-0.2,0.2-0.3,0.2c-0.1,0-0.3,0-0.4-0.1c-1-1-1.4-2.5-1.8-3.8c-0.2-0.7-1-2.5-0.5-3.2c0.5-0.8,1.8-0.2,2.4,0.1
				c1.1,0.4,2,1.1,2.8,2C130.8,26.7,131.3,27.7,131.3,28.8z M158.2,19.5c-3.4-7.4-11.7-7.8-18.8-8.3c-5.9-0.4-11.8-0.3-17.6,0.3
				c-6.5,0.7-12.9,2-19.2,3.9c-6.5,2-15.3,4.4-15.5,12.6c0,0.1-0.1,0.2-0.2,0.3c-0.1,0-0.3-0.1-0.3-0.2c-1.3-6,3.9-10.1,8.9-12.1
				c7.5-3,15.4-5,23.4-5.9c8.8-1.1,17.6-1.1,26.4,0c5.6,0.7,12.7,2.6,13.8,9.1C159.1,19.6,158.4,20,158.2,19.5L158.2,19.5z"/>
			<path id="Path_33_" class="st13" d="M163.4,19.5c-0.8-2.6-2.2-5-4-7c-0.1-0.1-0.2-0.2-0.3-0.3c-1.9-1.9-4.4-3.3-7-4
				c-9.7-2.8-20.9-1.6-30.9-1L119,7.4c-2.5,1.2-4.9,2.5-7.3,3.8c2.4-0.5,4.8-0.9,7.2-1.2c8.8-1.1,17.6-1.1,26.4,0
				c5.6,0.7,12.7,2.6,13.8,9.1c0,0.1,0,0.2,0,0.3c0.3,1.1,0.4,2.2,0.4,3.3c-0.1,5.6-3.7,9-8.1,11.3c-3.4,2-7.2,3.3-11.1,3.9
				c-3.1,0.8-6.2,1.5-9.3,2.4c-2.6,0.7-4,0.7-4.6,3.3c-0.5,1.8-0.7,3.5-1.7,4.6h0.4c7.6-0.2,15.2-1.6,22.3-4.4
				C153.3,41.6,169.4,37.4,163.4,19.5z"/>
			<path id="Path_34_" class="st11" d="M128.8,25.8c-0.6-0.6-1.4-1-2.2-1.2c-0.4-0.1-0.9-0.4-1,0.4c0,0.2,0.3,0.8,0.4,1
				c0.2,0.5,0.4,1,0.5,1.5c0.1,0.2,0.2,0.5,0.3,0.7c0.4,0.9,0.6,1.8,1.9,1.5c1-0.3,1.7-1,1.4-2C129.8,26.9,129.4,26.2,128.8,25.8z"
				/>
			<path id="Path_35_" class="st11" d="M98.2,30.3l1.6-0.5c1.7-0.5,4.8-1,6.1-2.2c0.6-0.1,0.9-0.4,0.7-0.9c0.1-0.6-0.2-0.8-0.9-0.5
				c-0.7-0.1-1.3-0.1-2-0.1c-1.4,0.1-2.8,0.3-4.2,0.6c-0.8,0.2-4,0.5-3.6,1.9L98.2,30.3z"/>
			<path id="Path_36_" class="st11" d="M133.1,14.1l-0.7,0.6c-0.8,0.7-1.6,1.5-2.3,2.2l-0.9,0.8c0.1,0.2,0.1,0.4-0.1,0.5
				c-0.9,0.8-1.8,1.7-2.7,2.6c1.9-0.5,3.7-1.4,5.3-2.6c0.8-0.5,1.5-1,2.3-1.6c0.5-0.4,2.7-1.6,2.8-2.2
				C135.5,12.8,134.3,12.7,133.1,14.1z"/>
			<path id="Path_37_" class="st11" d="M140.8,22.5c-0.9,0.3-1.7,0.6-2.5,0.8c0,0.1-0.1,0.2-0.2,0.3c-0.8,0.4-1.9,0.6-2.7,1
				c-0.2,0.1-0.3,0.2-0.5,0.2c0.5,0.1,1,0.3,1.6,0.4c2.5,0.5,6.1,1,8.5,0.1c0.8,0.1,1.6-0.5,1.7-1.3c-0.3-1.5-1.6-2.5-3.1-2.4
				C142.6,21.9,141.7,22.1,140.8,22.5z"/>
			<path id="Path_38_" class="st11" d="M40.3,25c-0.3,0.2-0.6,0.8-0.9,1.1l-0.1,0.1c-0.2,0.4-0.8,1.1-0.8,1.6
				c-0.1,1.3,2.7,1,3.4,0.7s0.9-0.8,0.5-1.5c-0.3-0.4-0.5-0.8-0.9-1.2C41.2,25.3,40.8,24.7,40.3,25z"/>
			<path id="Path_39_" class="st11" d="M37.6,13.8c-0.4-0.5-0.9-1-1.4-1.4c-0.6-0.7-1.5-1.2-2.4-1.4c-1.4-0.1-1.9,0.6-1.7,2.2
				c0.4,1.4,2.6,2.7,3.7,3.5c1.4,1.1,2.8,2.2,4.1,3.3c1,0.1-0.4-3.5-0.5-3.8C39,15.3,38.3,14.5,37.6,13.8z"/>
			<path id="Path_40_" class="st11" d="M50.7,12.5c-0.8,0.1-2.2,1.7-2.7,2.4c-0.5,0.7-1,1.4-1.5,2.1c-0.3,0.8-0.6,1.5-0.9,2.3
				s-1.5,1.8-0.3,2c0.7,0.1,0.9-0.2,1.5-0.7c1.7-1.3,3.3-2.9,4.6-4.6c0.4-0.5,0.8-1,1.2-1.6l0.5-0.9C52.7,12.5,52.1,12,50.7,12.5z"
				/>
			<path id="Path_41_" class="st11" d="M97.7,21.3c-1.3,2.1,4.8,1.8,5.4,1.8c1,0,1.9,0,2.9-0.1c0.6,0,5.5-0.5,4.7-2.1
				c-1.3-1.4-6.2-0.4-7.2-0.3C102.7,20.8,98.1,20.7,97.7,21.3z"/>
			<path id="Path_42_" class="st11" d="M115.4,18.6c0.1-0.1-0.1-1.1-0.1-1.2c-0.1-0.2-0.1-0.4-0.2-0.5c-0.4-0.3-0.7-0.6-1.2-0.8
				h-0.2c-0.1,0-0.3-0.1-0.3-0.2l-0.2-0.1c-1-0.5-2.1-0.8-3.2-0.9c0.2,0.9,3.1,2.4,3.6,2.7C113.9,17.8,115,18.9,115.4,18.6z"/>
			<path id="Path_43_" class="st11" d="M50.2,24.2c0.9,0,1.8-0.1,2.7-0.3c1.1-0.2,2.2-0.5,3.3-0.6c0.8-0.1,1.5-0.2,2.3-0.3
				c2.5,0,3.2-4.5-1.2-3.5c-0.6,0.1-1.1,0.3-1.7,0.5c-0.9,0.5-1.9,0.9-2.8,1.4c-0.8,0.4-2.8,0.9-3.3,1.6
				C48.6,23.3,48.9,23.7,50.2,24.2z"/>
			<path id="Shape_3_" class="st12" d="M60.3,6.4c-4-1.4-8.4-1.9-12.6-2.4c-9.5-1.2-19.8-2.2-29.3-0.3C14.4,4.4,10.7,5.9,7.2,8
				c-2.8,1.8-4.6,3.6-5.1,7.2c-0.2,2-0.1,4.1,0.4,6.1c1.8,6.1,6.9,9.8,13,13.2c6.4,3.5,13.3,6,20.5,7.3c7.7,1.5,15.5,2.2,23.3,2.2
				c7.1-0.1,14.9-2.4,18.6-8.6c3.3-7.5-1.6-16.1-7-21.6C67.9,10.6,64.5,7.8,60.3,6.4z M70.6,33c-19.9,7.3-43.5,2.8-60.1-10
				c-0.2-0.1,0-0.4,0.2-0.3c18.3,10.9,38.9,13.6,59.6,9.3c0.3-0.1,0.6,0.1,0.7,0.4S70.9,32.9,70.6,33z M40.1,20.6
				c-0.1,0.1-0.2,0.1-0.3,0c-2-1.4-3.9-2.8-5.9-4.3c-1.1-0.7-1.9-1.6-2.6-2.7c-1.2-2.3,0.4-4,2.9-3.7c1.4,0.2,2.5,1.3,3.4,2.3
				c1.3,1.2,2.3,2.6,3.1,4.2C41.3,17.5,42,20.9,40.1,20.6z M42.2,25c0.9,1.1,2.3,2.7,0.9,3.9C41.6,30,39.5,30,37.9,29
				c-0.5-0.4-0.6-1.1-0.2-1.6c0.4-0.8,0.9-1.5,1.4-2.2c0.3-0.6,0.6-1.4,1.2-1.5C41.1,23.6,41.8,24.5,42.2,25z M32.5,20.5
				c0.1,0.1,0.1,0.3,0,0.5c0.3,0.5,0.2,1.2-0.2,1.7c-1.2,1.4-4.4,0.3-5.8,0c-2.7-0.6-5.3-1.7-7.5-3.2c-2.4-1.8-5.8-5.7-1-6.7
				C23,11.6,29.2,17,32.5,20.5z M53.1,14.6c-0.9,1.8-2.1,3.4-3.5,4.8c-1,1-2.6,2.8-4.1,3.1c-3.7,1,0.2-5.3,0.8-6.2l0.1-0.1
				c0.9-1.8,2.4-3.3,4.1-4.3C52.6,10.8,54.2,12.2,53.1,14.6L53.1,14.6z M60.9,19c2.6,1.7,1,4.5-1.5,5s-5.2,0.9-7.7,1.2
				c-1.2,0.1-3.6,0.6-4.3-0.9c-0.8-1.9,2.8-3.5,5.8-4.4C55.9,18.7,58.9,17.8,60.9,19L60.9,19z M72.2,24.6
				C68.9,10.9,53.2,8.3,41.2,7.8c-6.1-0.3-12.3-0.7-18.4-0.5C16.4,7.4,9,9.7,7.4,16.8c0,0.1-0.1,0.2-0.3,0.2s-0.2-0.1-0.2-0.3
				c1-15.1,24.7-11,34.3-10.4C49.1,6.8,56,7.8,63,11.5c4.9,2.5,10.2,7,10.1,13c0,0.2-0.1,0.5-0.4,0.5S72.3,24.8,72.2,24.6L72.2,24.6
				z"/>
			<path id="Path_44_" class="st13" d="M60.3,6.4c-0.5-0.2-0.9-0.3-1.4-0.4c-3.3,0.2-6.7,0.6-10.1,1.1c5,0.6,9.8,2.1,14.2,4.4
				c4.9,2.5,10.2,7,10.1,13c0,0.2-0.2,0.4-0.4,0.4c-0.2,0-0.4-0.1-0.5-0.3c-0.5-1.9-1.3-3.8-2.3-5.5c1.5,3.3,2.3,7.2,1,10.8
				c-0.3,0.8-0.7,1.5-1.3,2.2l0.7-0.1c0.3,0,0.5,0.1,0.6,0.4c0.1,0.3-0.1,0.6-0.3,0.7c-1.2,0.5-2.5,0.9-3.8,1.2
				c-3.7,1.9-9,2-12.8,2.2c-3.4,0.1-6.8,0.9-10.2,1c-1.8,0-3.2-0.5-4.6,0.4c-1.8,1.1-1.9,2.3-4.5,3l-1.5,0.3c1,0.2,1.9,0.4,2.9,0.6
				c7.7,1.5,15.5,2.2,23.3,2.2c7.1-0.1,14.9-2.4,18.6-8.6c3.3-7.5-1.6-16.1-7-21.6C67.9,10.6,64.5,7.8,60.3,6.4z"/>
			<path id="Path_45_" class="st13" d="M62.1,12.3c0.8,0.4,1.5,0.8,2.3,1.3c-5.4-3.6-12.6-5-19.2-5.6C50.7,9.8,56.8,9.3,62.1,12.3z"
				/>
			<path id="Path_46_" class="st11" d="M19.6,18.4c1.5,1,3.2,1.8,5,2.3c1.1,0.4,4.1,1.5,5.2,1.1c2.3-0.9-0.1-2.4-1-3.2
				c-1.2-1.1-4.3-2.9-4.3-3c-1.6-0.9-3.8-2.2-5.8-2C14,14.4,18.1,17.4,19.6,18.4z"/>
			<path id="Shape_4_" class="st12" d="M192.6,2.6c-6.4-0.1-12.8,0.5-19,1.8c-4.8,1.1-9.8,2.8-12.3,7.2c0.6,0.7,1.1,1.4,1.6,2.2
				c2-3.3,5.9-4.6,9.5-5.6c5.3-1.5,10.8-2.2,16.3-2.3c9.3-0.2,22.6,0.1,29.8,6.9c0.5,0.5-0.3,1.3-0.8,0.8
				c-6.8-5.9-18.9-6.2-27.5-6.2c-4.9,0-9.8,0.5-14.5,1.5c-4.2,0.9-9.7,2-12.3,5.8c1.3,2.7,2.2,5.6,2.8,8.6c0.6,2.3,0.8,4.7,0.5,7
				c-0.1,0.9-0.3,1.8-0.7,2.6c5.7,2.6,11.9,3.9,18.2,4c6.1,0.3,12.3,0.2,18.4-0.3c10.5-0.9,30.3-7.2,22.9-21.7
				C219.8,4,203.3,2.8,192.6,2.6z M196.6,12.5c0.9-2.1,6.2-0.5,7.9-0.1c2.1,0.5,5.8,1.3,6.6,3.6c0.3,0.7,0.2,1.5-0.3,2.1
				s-1.2,0.9-2,0.7c-1.7-0.1-3.6-1.4-5-2.2c-1.4-0.7-2.7-1.4-4.1-2.1c-0.9-0.4-1.9-0.9-2.9-1.3c-0.2,0-0.3-0.1-0.4-0.3
				C196.5,12.8,196.5,12.6,196.6,12.5L196.6,12.5z M188.8,9.9c0.4-0.5,1-0.9,1.6-1c0.7-0.1,1.3-0.2,2-0.1c0.5,0.1,1.1,0.4,1.1,1
				c-0.1,0.5-0.4,0.9-0.8,1.1c-1.1,0.6-2.5,0.6-3.6-0.1c-0.1-0.1-0.2-0.2-0.2-0.3c-0.1,0-0.3-0.1-0.3-0.2
				C188.6,10.1,188.6,10,188.8,9.9L188.8,9.9z M189.2,13.3c2.5,1,4,4.1,5.5,6.2c1.2,1.7,2.1,3.3,0.2,4.8c-4.1,3.2-5.4-2-5.8-6
				c-0.3-1.5-0.4-3-0.5-4.5c0-0.1,0.1-0.2,0.2-0.3C188.9,13.3,189,13.3,189.2,13.3L189.2,13.3z M182.4,9.8c0.6-0.5,1.4-0.8,2.2-0.9
				c0.6-0.2,1.2-0.2,1.7,0c1,0.6,0.1,2.4-0.5,3c-1.1,1.1-2.3,0.1-3.1-0.8C182.1,10.8,181.8,10.3,182.4,9.8L182.4,9.8z M182.6,16.1
				c0.6-0.5,1.9-1.8,2.8-1.2c1.6,1-2.3,5.5-3.1,6.3c-0.9,1.1-1.8,2.2-3.3,2.3c-0.7,0.1-2.4,0.1-2.7-0.8c-0.3-0.9,1.4-2.1,1.9-2.6
				l0.3-0.2C179.8,18.6,181.1,17.3,182.6,16.1L182.6,16.1z M172.2,20.4c-0.3-0.1-0.5-0.3-0.6-0.5c-0.1-0.3-0.1-0.6,0.1-0.8
				c0.6-1,1.4-1.8,2.4-2.4c0.4-0.3,0.8-0.6,1.2-0.8c1.2-1,4-3.3,4.4-1.5c0.2,0.9-1.1,1.9-1.6,2.5c-0.9,1-1.9,1.8-3,2.6
				C174.4,19.8,173.1,20.6,172.2,20.4L172.2,20.4z M223.4,18.2c-4.1,7.2-14.1,9.1-21.6,10.7c-8.4,1.7-18.8,3.4-26.7-0.7
				c-0.2-0.1-0.1-0.4,0.1-0.3c8.3,2.1,17.7,0.8,26-0.9c7.2-1.4,16.6-3.3,21.5-9.2C223.1,17.3,223.6,17.8,223.4,18.2z"/>
			<path id="Path_47_" class="st13" d="M193,2.6c-3.1,1-6.2,2.3-9.2,3.7c1.6-0.1,3.2-0.2,4.9-0.3c9.3-0.2,22.6,0.1,29.8,6.9
				c0.5,0.5-0.3,1.3-0.8,0.8c-1.1-1-2.4-1.8-3.7-2.4c3.6,1.9,6.4,4.6,5.8,8.9c0,0.1,0,0.3-0.1,0.4c1.1-0.8,2.1-1.8,3-2.9
				c0.3-0.4,0.9,0.1,0.7,0.5c-1.2,2.1-3,3.9-5.1,5.2c-1.7,2-4.6,2.8-7.6,3.4c-3,0.9-6.1,1.5-8.9,2.1l-1.9,0.4
				c-0.7,0.6-1.3,1.4-1.8,2.2c-1.3,2.4-2.1,2.6-5,2.6c-3.5,0-8.2-0.6-9.6,2.8h0.4c6.1,0.3,12.3,0.2,18.4-0.3
				c10.5-0.9,30.3-7.2,22.9-21.7C219.8,4.2,203.8,2.8,193,2.6z"/>
			<path id="Path_48_" class="st13" d="M213.9,11.2c-0.2-0.1-0.4-0.2-0.6-0.3L213.9,11.2z"/>
			<path id="Path_49_" class="st11" d="M184.3,11.5c0.4,0.1,0.9-0.1,1.1-0.4c0.2-0.3,0.4-0.5,0.5-0.9c0.1-0.3,0.2-0.6-0.2-0.7
				c-0.2,0-0.4,0-0.5,0.1c-0.4,0.1-0.8,0.2-1.2,0.3c-0.3,0.1-0.5,0.2-0.8,0.4c-0.2,0.1-0.3,0-0.1,0.3
				C183.5,10.9,183.9,11.2,184.3,11.5z"/>
			<path id="Path_50_" class="st11" d="M190.3,10.4c0.6,0.2,1.3,0.1,1.9-0.2c0.3-0.1,0.3-0.3,0-0.4h-0.4h-0.8
				c-0.4,0-0.9,0.1-1.3,0.3c0,0,0,0.1,0,0.1C189.6,10.3,190.1,10.3,190.3,10.4z"/>
			<path id="Path_51_" class="st11" d="M202.9,15.2l2.4,1.1l2,0.9c1.6,1.1,2.2,0.2,1.8-2.5c-0.6-0.8-2.5-1-3.4-1.2
				c-0.7-0.2-6.9-1.5-7.5-0.7C198.4,12.5,200.9,14,202.9,15.2z"/>
			<path id="Path_52_" class="st11" d="M189.9,20.2c0.3,1.6,1.5,6.2,4.4,3.4c1.6-1.6-0.4-3.6-1.3-5c-1-1.4-2-3.2-3.5-4.1
				c0.1,1.8,0.2,3.5,0.4,5.3C189.9,19.9,189.9,20,189.9,20.2z"/>
			<path id="Path_53_" class="st11" d="M177.4,22.3c0.1,0.4,0.9,0.4,1.3,0.3c1.2-0.3,2.3-1,3-2c0.9-1,1.6-2,2.3-3.1
				c0.1-0.2,0.7-0.9,0.6-1.1c0.2-1-0.2-1.1-0.9-0.5l-0.7,0.6c-0.7,0.6-1.4,1.3-2,1.9c-0.9,0.9-1.7,1.7-2.6,2.6
				C178.1,21.4,177.4,21.9,177.4,22.3z"/>
			<path id="Path_54_" class="st11" d="M178.4,15.2c0.6-0.7,0.3-0.6-0.1-0.4c0,0.1-0.1,0.1-0.1,0.2c-0.2,0.1-0.4,0.2-0.6,0.3
				c-0.7,0.5-1.5,0.9-2.2,1.4c-0.4,0.3-0.8,0.6-1.2,0.9c-0.3,0.3-1.8,1.3-1.1,1.8c0.3,0.2,1.6-0.8,1.9-1
				C176.2,17.5,177.4,16.4,178.4,15.2z"/>
			<path id="Path_55_" class="st5" d="M79.3,32.2c-2.7,8.6-11.8,11.6-20,11.7c-7.8,0-15.6-0.7-23.3-2.2c-7.2-1.3-14.1-3.8-20.5-7.3
				c-7.7-4.3-14-9.2-13.6-18.8c0-0.1-0.1-0.1-0.1-0.1s-0.1,0-0.1,0.1c-2,8.1,1.7,13.4,8.2,17.7c8,5.3,17,8.8,26.4,10.5
				C49.5,46,76,50.7,80.6,32.6c0.1-0.4-0.1-0.7-0.4-0.8S79.5,31.8,79.3,32.2z"/>
			<path id="Path_56_" class="st5" d="M222.7,17.7c-4.8,6-14.3,7.8-21.4,9.2c-8.3,1.6-17.7,3-26,0.9c-0.2,0-0.3,0.2-0.1,0.3
				c7.9,4.1,18.3,2.5,26.7,0.7c7.5-1.5,17.5-3.4,21.6-10.7C223.6,17.8,223.1,17.3,222.7,17.7z"/>
			<path id="Path_57_" class="st5" d="M155,30.6c-3.8,2.5-8.1,4.2-12.6,5.1c-5.4,1.1-12.5,2.4-18,1.6c-0.2,0-0.3,0.3-0.1,0.3
				c10,2.4,23.5,1,31.1-6.5C155.6,30.8,155.3,30.4,155,30.6z"/>
			<path id="Path_58_" class="st5" d="M70.3,31.9c-20.7,4.3-41.3,1.7-59.6-9.3c-0.2-0.1-0.4,0.2-0.2,0.3
				c16.6,12.8,40.2,17.4,60.1,10c0.3-0.1,0.4-0.4,0.3-0.7C70.8,32.1,70.6,31.9,70.3,31.9z"/>
			<path id="Path_59_" class="st5" d="M75.4,15.9c-2.9-3.9-6.6-7.2-10.8-9.6c-5-2.7-11-3.4-16.6-4.1C34.9,0.4-8.7-2.1,2.5,23
				c0.1,0.2,0.3,0,0.3-0.1c-0.4-2.5-1-5.2-0.7-7.7C2.7,11.6,4.4,9.8,7.2,8c3.4-2.1,7.2-3.6,11.1-4.3c9.5-1.9,19.8-1,29.3,0.3
				c4.2,0.5,8.6,1.1,12.6,2.4c4.3,1.5,7.6,4.2,10.7,7.4c6.1,6.2,11.5,16.4,5.2,24.5c-0.4,0.6,0.3,1.4,0.8,0.8
				C83.2,32,80.8,22.8,75.4,15.9z"/>
			<path id="Shape_5_" class="st5" d="M166.1,23.3c-1-5-2.6-10.1-6.6-13.4c-9.6-7.8-26-5.3-37.4-4.8c-12,0.6-26.8,1.3-35.7,10.5
				c-6.9,7.1-7,16.5-2,24.1c0.6,1.3,1.4,2.5,2.5,3.4c2.6,2.3,6.2,3.1,9.4,3.9c10.4,2.6,21.2,4.1,32,3.3c8.9-0.6,17.7-3,25.6-7.1
				c4.8-2.6,12.3-6.9,12.8-12.9C166.9,28,166.7,25.6,166.1,23.3z M147.4,43.9c-7.1,2.8-14.7,4.3-22.3,4.4
				c-8.2,0.1-16.5-0.7-24.5-2.5c-3.5-0.8-7.5-1.4-10.7-3c-2.7-1.5-4.7-3.9-5.8-6.7c-2.4-7.4-1.3-15.1,5.6-20.7
				c8.5-7,21.2-7.6,31.6-8.2c10-0.6,21.2-1.8,30.9,1c5.9,1.7,9.3,5.6,11.3,11.3C169.4,37.4,153.3,41.6,147.4,43.9z"/>
			<path id="Path_60_" class="st5" d="M220.9,7.1c-9-6.2-22.2-7.1-32.8-6.8c-9.3,0.3-24.3,1-29,10.8c-0.6,1.3,1.3,2.4,1.9,1.1
				c2.4-4.9,7.6-6.7,12.6-7.8c6.2-1.3,12.6-2,19-1.8c10.7,0.2,27.2,1.5,32.7,12.3c7.4,14.5-12.4,20.8-22.9,21.7
				c-6.1,0.5-12.3,0.6-18.4,0.3c-6.7-0.1-13.2-1.6-19.2-4.5c-0.2-0.1-0.3,0-0.4,0.1c-0.1,0.2-0.1,0.3,0.1,0.5
				c4.2,3.4,9.4,5.4,14.8,5.7c6.6,0.5,13.2,0.6,19.8,0.2c9.3-0.5,20.5-2.1,26.7-9.9C231.6,21.6,228.1,12.1,220.9,7.1z"/>
			<path id="Path_61_" class="st5" d="M116.9,38c-5.4-0.4-10.7-1.1-16-2.1c-4.9-1.1-9.5-2.9-14.3-4.2c-0.1,0-0.2,0.1-0.1,0.2
				c8.1,6.3,20.5,8.4,30.4,6.9C117.4,38.7,117.3,38,116.9,38z"/>
			<path id="Path_62_" class="st5" d="M63,11.5c-7.1-3.7-14-4.7-21.9-5.1C31.6,5.8,7.9,1.6,6.9,16.7C6.9,16.9,7,17,7.1,17
				s0.2-0.1,0.3-0.2c1.6-7.1,9-9.4,15.4-9.5c6.1-0.1,12.3,0.3,18.4,0.5c12,0.5,27.7,3.1,31.1,16.8c0.1,0.2,0.3,0.3,0.5,0.3
				c0.2,0,0.4-0.2,0.4-0.4C73.2,18.4,67.9,14,63,11.5z"/>
			<path id="Path_63_" class="st5" d="M145.2,10c-8.8-1.1-17.6-1.1-26.4,0c-8,0.9-15.9,2.9-23.4,5.9c-5,2.1-10.2,6.1-8.9,12.1
				c0,0.1,0.2,0.2,0.3,0.2S87,28.1,87,28c0.2-8.2,9-10.6,15.5-12.6c6.3-1.9,12.7-3.2,19.2-3.9c5.9-0.6,11.8-0.7,17.6-0.3
				c7.2,0.5,15.5,0.9,18.8,8.3c0.2,0.5,0.9,0.1,0.8-0.4C157.9,12.7,150.8,10.8,145.2,10z"/>
			<path id="Path_64_" class="st5" d="M218.5,12.9C211.3,6,198.1,5.8,188.7,6c-5.5,0.1-11,0.8-16.3,2.3c-4,1.1-8.2,2.5-10.1,6.6
				c-0.2,0.4,0.4,0.8,0.7,0.4c2.4-4.2,8.3-5.3,12.7-6.3c4.8-1,9.7-1.5,14.5-1.5c8.6,0,20.6,0.3,27.5,6.2
				C218.3,14.1,219.1,13.4,218.5,12.9z"/>
			<path id="Shape_6_" class="st5" d="M120.6,24c-0.1,0-0.1,0-0.2,0c-3.7,1.1-7.2,3-10.2,5.5c-1.2,1-3.2,2.4-1.6,4
				c3.9,3.9,11.7-5.4,12.6-8.7c0.1-0.2,0-0.4-0.1-0.5C121,24.1,120.8,24,120.6,24z M116.2,29.6c-0.9,1-1.9,1.8-3,2.6
				c-0.8,0.5-1.7,0.8-2.7,0.9c-1.3-1-1.4-1.7-0.4-2.2c1-1.4,3.6-2.6,5.1-3.4c0.8-0.5,1.7-0.9,2.5-1.4c0.2,0.2,0.4,0.2,0.6,0.1
				c0.5-0.2,0.9-0.4,1.4-0.6C118.7,27,117.6,28.4,116.2,29.6z"/>
			<path id="Shape_7_" class="st5" d="M138.8,13c-0.7-2.3-3.9-1.4-5.3-0.5c-2.7,2-5.1,4.3-7.2,7c-0.6,0.5-1.2,1.1-1.8,1.7
				c-0.1,0.1-0.2,0.4-0.1,0.5c0.1,0.2,0.3,0.3,0.5,0.3c3.4-0.2,6.1-2,8.9-3.9C135.1,17.3,139.4,15.2,138.8,13z M134,16.7
				c-0.7,0.5-1.5,1.1-2.3,1.6c-1.6,1.2-3.4,2-5.3,2.6c0.9-0.9,1.8-1.8,2.7-2.6c0.1-0.1,0.2-0.3,0.1-0.5l0.9-0.8
				c0.8-0.7,1.5-1.5,2.3-2.2l0.7-0.6c1.1-1.4,2.4-1.3,3.7,0.4C136.7,15.1,134.5,16.3,134,16.7z"/>
			<path id="Shape_8_" class="st5" d="M145.4,14.5c-0.4-0.9-1.4-1.4-2.3-1.2c-0.1-0.1-0.3-0.2-0.5-0.1c-0.9,0.4-2,0.5-2.8,1.1
				c-0.7,0.7-1.3,1.5-1.5,2.5c-0.4,2.3,2.9,1.6,4.2,1.3C144.4,17.8,146.3,16.8,145.4,14.5z M141.6,17c-0.2,0-1.7,0.4-1.9,0.2
				c-0.3-0.4,0.4-1.6,0.6-1.9c0.5-0.5,1.2-0.9,1.9-1c0.8-0.1,1.7-0.1,2,0.6C145,16.4,142.7,16.8,141.6,17L141.6,17z"/>
			<path id="Shape_9_" class="st5" d="M124.2,14c-0.1-0.7-0.9-1.1-1.5-1.4c-0.1,0-0.2,0-0.3,0c-0.6-0.1-1.2,0-1.8,0.4
				c-0.6,0.3-0.9,1-0.7,1.6c0.2,1.2,0.6,2.3,1.1,3.4c0.3,0.6,0.8,1.5,1.6,1.3c0.8-0.2,1-1.3,1.2-2C124.2,16.2,124.3,15.1,124.2,14z
				 M123.2,15.5c-0.1,0.5-0.2,1-0.3,1.4c-0.1,0.3-0.2,0.6-0.4,0.9c0.1,0.4,0,0.4-0.2,0.1c-0.7-0.8-1.1-1.7-1.3-2.7
				c-0.5-1.4,0.5-2,1.5-1.8c0.4,0.2,0.9,0.4,1,0.8C123.5,14.7,123.4,15.1,123.2,15.5L123.2,15.5z"/>
			<path id="Shape_10_" class="st5" d="M115.9,16.5c-0.2-0.6-0.7-1-1.3-1.2c-0.5-0.3-1-0.6-1.6-0.8c-0.9-0.3-1.8-0.5-2.8-0.7
				c-0.3-0.1-0.8-0.2-1.2,0c-0.6,0.5-0.3,1.6,0.1,2.1c0.5,0.5,1.1,0.9,1.7,1.2c0.7,0.5,1.4,1.1,2.2,1.6c0.7,0.5,2.2,1.8,3,0.8
				C116.7,18.9,116.2,17.2,115.9,16.5z M115.4,18.6c-0.4,0.3-1.6-0.9-1.9-1.1c-0.6-0.4-3.4-1.8-3.6-2.7c1.1,0.1,2.2,0.5,3.2,0.9
				l0.2,0.1c0,0.1,0.2,0.2,0.3,0.2h0.2c0.4,0.2,0.8,0.5,1.2,0.8c0.1,0.2,0.1,0.4,0.2,0.5C115.3,17.5,115.5,18.5,115.4,18.6
				L115.4,18.6z"/>
			<path id="Shape_11_" class="st5" d="M111.9,20.6c-0.1-0.5-0.5-0.8-0.9-1c-0.1-0.1-0.2-0.1-0.3-0.1c-1.8-0.4-3.6-0.5-5.4-0.2
				c-2.5,0.3-5.8,0.1-8.2,1c-0.8,0.3-1.4,0.8-1.5,1.7c0,1.2,1,1.7,2,2c2.9,0.7,6.5,0.3,9.4,0.1c1.5-0.1,3.8-0.1,4.7-1.5
				C112.2,22,112.3,21.2,111.9,20.6z M106,23c-1,0.1-1.9,0.1-2.9,0.1c-0.6,0-6.6,0.4-5.4-1.8c0.4-0.6,5-0.6,5.8-0.7
				c1-0.1,5.9-1.2,7.2,0.3C111.5,22.4,106.6,22.9,106,23z"/>
			<path id="Shape_12_" class="st5" d="M102.1,25.5c-0.1,0-0.2,0.1-0.2,0.1c-0.7,0.1-1.5,0.1-2.2,0.3c-1.1,0.2-4,0.4-4.7,1.5
				c-0.6,0.9,0.1,2.4,0.7,3c0.8,1,1.7,1,2.9,0.8c2.2-0.5,4.3-1.2,6.3-2c1-0.4,2.8-1,3.4-2.1C109.7,23.9,103.3,25.2,102.1,25.5z
				 M105.9,27.6c-1.3,1.2-4.4,1.7-6.1,2.2l-1.6,0.5l-2.4-1.6c-0.3-1.4,2.9-1.8,3.6-1.9c1.4-0.3,2.8-0.5,4.2-0.6
				c0.7-0.1,1.3-0.1,2,0.1c0.7-0.3,1-0.1,0.9,0.5C106.7,27.2,106.5,27.5,105.9,27.6z"/>
			<path id="Shape_13_" class="st5" d="M145,20.8c-1.7-0.4-3.8,0.7-5.4,1.3c-1.4,0.5-2.8,1-4.1,1.5c-0.9,0.2-1.7,0.4-2.6,0.8
				c-0.2,0.1-0.3,0.4-0.2,0.6c0.4,1.9,6,2,7.6,2c1.7,0,6.8,0.3,7.5-1.9C148.2,23.5,146.4,21,145,20.8z M145,25.5
				c-2.4,0.9-6,0.4-8.5-0.1c-0.5-0.1-1-0.2-1.6-0.4c0.2-0.1,0.3-0.1,0.5-0.2c0.8-0.4,1.8-0.6,2.7-1c0.1-0.1,0.2-0.2,0.2-0.3
				c0.8-0.3,1.7-0.6,2.5-0.9c0.9-0.4,1.9-0.6,2.8-0.8c1.5-0.1,2.8,0.9,3.1,2.4C146.5,25,145.8,25.5,145,25.5L145,25.5z"/>
			<path id="Shape_14_" class="st5" d="M130.1,26c-0.7-0.9-1.7-1.6-2.8-2c-0.6-0.2-1.9-0.7-2.4-0.1s0.3,2.5,0.5,3.2
				c0.4,1.3,0.7,2.9,1.8,3.9c0.1,0.1,0.2,0.1,0.4,0.1c0.1,0,0.2-0.1,0.3-0.2c0.4,0,0.8,0,1.1-0.1c0.9-0.3,2.1-0.9,2.3-2
				C131.3,27.8,130.8,26.8,130.1,26z M128.7,29.6c-1.2,0.3-1.4-0.6-1.9-1.5c-0.1-0.2-0.2-0.5-0.3-0.7c-0.2-0.5-0.3-1-0.5-1.5
				c-0.1-0.2-0.4-0.8-0.4-1c0.1-0.7,0.6-0.5,1-0.4c0.8,0.2,1.6,0.6,2.2,1.2c0.6,0.5,1,1.1,1.3,1.9C130.3,28.6,129.7,29.3,128.7,29.6
				z"/>
			<path id="Shape_15_" class="st5" d="M50.4,12c-1.7,1-3.1,2.5-4.1,4.3l-0.1,0.1c-0.5,0.9-4.4,7.1-0.8,6.2c1.5-0.4,3-2.1,4.1-3.1
				c1.4-1.4,2.6-3,3.6-4.8C54.2,12.2,52.6,10.8,50.4,12z M52.5,14.5c-0.3,0.6-0.7,1.1-1.1,1.6c-1.3,1.7-2.8,3.3-4.6,4.6
				c-0.6,0.4-0.8,0.8-1.5,0.7c-1.1-0.2,0-1.3,0.3-2c0.3-0.7,0.6-1.5,0.9-2.3c0.4-0.8,0.9-1.5,1.5-2.1c0.5-0.7,1.9-2.3,2.7-2.4
				c1.5-0.5,2,0,2.2,1L52.5,14.5z"/>
			<path id="Shape_16_" class="st5" d="M32.5,20.9c0.1-0.1,0.1-0.3,0-0.5c-3.2-3.5-9.4-8.8-14.6-7.8c-4.8,1-1.4,4.9,1,6.7
				c2.3,1.5,4.9,2.6,7.6,3.2c1.4,0.4,4.6,1.4,5.8,0C32.6,22.1,32.7,21.4,32.5,20.9z M29.8,21.9c-1.1,0.4-4.1-0.7-5.2-1.1
				c-1.8-0.5-3.5-1.3-5-2.3c-1.5-1-5.6-4.1-0.8-4.7c1.9-0.3,4.1,1.1,5.8,2c0,0.2,3,1.9,4.3,3C29.7,19.5,32.1,20.9,29.8,21.9
				L29.8,21.9z"/>
			<path id="Shape_17_" class="st5" d="M40.8,16.5c-0.8-1.6-1.9-3-3.1-4.2c-1-1-2-2.2-3.4-2.3c-2.5-0.3-4.1,1.4-2.9,3.7
				c0.7,1.1,1.6,2,2.6,2.7c1.9,1.5,3.9,2.9,5.9,4.3c0.1,0.1,0.2,0.1,0.3,0C42,20.9,41.3,17.5,40.8,16.5z M40,19.9
				c-1.4-1.1-2.7-2.2-4.1-3.3c-1.1-0.8-3.3-2.1-3.7-3.5c-0.3-1.6,0.3-2.3,1.7-2.2c0.9,0.2,1.7,0.7,2.4,1.4c0.5,0.4,0.9,0.9,1.4,1.4
				c0.7,0.7,1.3,1.5,1.9,2.4C39.6,16.4,41,20,40,19.9z"/>
			<path id="Shape_18_" class="st5" d="M42.2,25c-0.4-0.5-1.1-1.4-1.9-1.2c-0.6,0.1-0.9,0.9-1.2,1.5c-0.5,0.7-1,1.4-1.4,2.2
				c-0.4,0.5-0.3,1.2,0.2,1.6c1.6,1,3.7,1,5.2-0.2C44.5,27.6,43.2,26,42.2,25z M41.9,28.4c-0.7,0.4-3.5,0.6-3.4-0.7
				c0-0.5,0.6-1.1,0.8-1.5l0.1-0.1c0.2-0.3,0.5-0.9,0.9-1.1c0.5-0.3,0.8,0.3,1.2,0.7c0.3,0.4,0.6,0.8,0.9,1.2
				C42.8,27.6,42.7,28,41.9,28.4z"/>
			<path id="Shape_19_" class="st5" d="M60.9,19c-2-1.3-5-0.3-7.7,1c-3,0.9-6.6,2.5-5.8,4.4c0.7,1.5,3.1,1.1,4.3,0.9
				c2.5-0.3,5.2-0.7,7.7-1.2C61.9,23.5,63.5,20.8,60.9,19z M58.6,23c-0.8,0.1-1.5,0.1-2.3,0.3c-1.1,0.2-2.2,0.4-3.3,0.6
				c-0.9,0.2-1.8,0.3-2.7,0.3c-1.4-0.5-1.6-0.9-0.7-1.2c0.5-0.7,2.5-1.2,3.3-1.6c1-0.5,1.9-0.9,2.8-1.4c0.6-0.2,1.1-0.4,1.7-0.5
				C61.8,18.5,61.1,23,58.6,23z"/>
			<path id="Shape_20_" class="st5" d="M194.6,19.5c-1.5-2.1-3-5.2-5.5-6.2c-0.1,0-0.3,0-0.4,0.1c-0.1,0.1-0.2,0.2-0.2,0.3
				c0.1,1.5,0.2,3,0.5,4.5c0.3,4,1.7,9.2,5.8,6C196.8,22.8,195.8,21.1,194.6,19.5z M194.3,23.5c-2.9,2.8-4-1.8-4.4-3.4
				c0-0.1,0-0.3-0.1-0.4c-0.1-1.8-0.2-3.5-0.4-5.3c1.5,0.9,2.5,2.8,3.5,4.1S195.9,21.9,194.3,23.5z"/>
			<path id="Shape_21_" class="st5" d="M185.3,14.9c-1-0.6-2.2,0.7-2.8,1.2c-1.4,1.2-2.7,2.5-4,3.9l-0.3,0.2
				c-0.5,0.5-2.2,1.7-1.9,2.6s2,0.8,2.7,0.8c1.5-0.1,2.4-1.3,3.3-2.3C183,20.4,186.9,15.9,185.3,14.9z M184.1,17.6
				c-0.7,1.1-1.5,2.1-2.3,3.1c-0.7,1-1.8,1.7-3,2c-0.5,0-1.3,0.1-1.3-0.3c-0.1-0.4,0.7-0.9,1-1.2c0.9-0.9,1.7-1.7,2.6-2.6
				c0.7-0.6,1.4-1.3,2-1.9l0.7-0.6c0.8-0.6,1.1-0.5,0.9,0.5C184.7,16.7,184.2,17.4,184.1,17.6z"/>
			<path id="Shape_22_" class="st5" d="M179.7,14.3c-0.4-1.7-3.2,0.5-4.4,1.5c-0.4,0.3-0.8,0.5-1.2,0.8c-1,0.6-1.8,1.4-2.4,2.4
				c-0.2,0.2-0.2,0.5-0.1,0.8c0.1,0.3,0.3,0.5,0.6,0.5c0.9,0.3,2.2-0.5,2.9-1c1.1-0.8,2.1-1.7,3-2.6
				C178.6,16.2,179.9,15.2,179.7,14.3z M178.4,15.3c-1,1.2-2.2,2.3-3.5,3.2c-0.3,0.2-1.6,1.2-1.9,1c-0.7-0.5,0.8-1.6,1.1-1.8
				c0.4-0.3,0.8-0.6,1.2-0.9c0.8-0.4,1.5-0.9,2.2-1.4c0.2-0.1,0.4-0.2,0.6-0.3c0.1,0,0.1-0.1,0.1-0.2
				C178.7,14.6,179,14.5,178.4,15.3L178.4,15.3z"/>
			<path id="Shape_23_" class="st5" d="M211.1,16c-0.8-2.4-4.5-3.1-6.6-3.6c-1.7-0.4-7-2-7.9,0.1c-0.1,0.1-0.1,0.3,0,0.5
				s0.2,0.3,0.3,0.3c1,0.4,1.9,0.9,2.9,1.3c1.3,0.7,2.7,1.4,4.1,2.1c1.4,0.7,3.3,2.1,5,2.2c0.7,0.1,1.5-0.1,2-0.7
				S211.4,16.7,211.1,16z M207.3,17.2l-2-0.9l-2.4-1.1c-2-1.2-4.6-2.7-4.7-2.5c0.5-0.8,6.8,0.6,7.5,0.7c0.9,0.2,2.8,0.5,3.4,1.2
				C209.5,17.4,208.9,18.3,207.3,17.2z"/>
			<path id="Shape_24_" class="st5" d="M186.3,8.9c-0.6-0.2-1.2-0.2-1.7,0c-0.8,0.1-1.5,0.4-2.2,0.9c-0.5,0.5-0.2,0.9,0.3,1.3
				c0.8,0.9,2,1.8,3.1,0.8C186.3,11.3,187.3,9.5,186.3,8.9z M185.9,10.2c-0.1,0.3-0.3,0.6-0.5,0.9c-0.3,0.3-0.7,0.5-1.1,0.4
				c-0.4-0.3-0.8-0.6-1.2-0.9c-0.2-0.3-0.1-0.2,0.1-0.3c0.2-0.2,0.5-0.3,0.8-0.4c0.4-0.2,0.8-0.3,1.2-0.3c0.2-0.1,0.4-0.1,0.5-0.1
				C186.1,9.6,186,10,185.9,10.2z"/>
			<path id="Shape_25_" class="st5" d="M192.4,8.8c-0.7-0.1-1.3,0-2,0.1c-0.6,0.1-1.2,0.5-1.6,1c-0.1,0.1-0.1,0.2-0.1,0.3
				s0.1,0.2,0.2,0.2c0,0.1,0.1,0.2,0.2,0.3c1.1,0.7,2.4,0.8,3.6,0.1c0.4-0.2,0.7-0.6,0.7-1.1C193.4,9.2,192.9,8.9,192.4,8.8z
				 M192.2,10.1c-0.6,0.3-1.2,0.4-1.9,0.2c-0.1,0-0.6-0.1-0.6-0.2c0,0,0-0.1,0-0.1c0.4-0.1,0.9-0.2,1.3-0.3h0.8h0.4
				C192.4,9.9,192.4,10,192.2,10.1L192.2,10.1z"/>
			<path id="Path_65_" class="st14" d="M109.6,43.1c-7.4-1.5-15-3.3-21.4-7.6c-0.4-0.3-0.8,0.3-0.5,0.7c5.5,5.8,13.8,8.4,21.6,8.9
				c0.4,0.1,0.7-0.1,0.9-0.4c0.2-0.3,0.3-0.7,0.1-1C110.3,43.4,110,43.1,109.6,43.1z"/>
			<path id="Path_66_" class="st14" d="M176.8,31.3c-2.6-0.7-5.3-1.2-8-1.4c-0.4,0-0.4,0.4-0.2,0.6c2.2,1.6,4.8,2.6,7.6,2.9
				C177.6,33.6,178.2,31.6,176.8,31.3z"/>
			<path id="Path_67_" class="st14" d="M14.4,29.8c-4-3.2-7.5-7-10.4-11.2c-0.1-0.2-0.3-0.3-0.5-0.2c-0.2,0.1-0.3,0.3-0.2,0.5
				c1.6,5.3,5,9.8,9.7,12.7C14,32.2,15.4,30.5,14.4,29.8z"/>
			<path id="Path_68_" class="st14" d="M22.9,33c-2.2-0.3-4.4-0.7-6.6-1.1c-0.2-0.1-0.5,0.1-0.5,0.3s0,0.5,0.2,0.6
				c2,1.2,4.3,1.9,6.7,1.9C23.6,34.7,23.9,33.2,22.9,33z"/>
		</g>
		<g id="cheese" transform="translate(5.000000, 100.000000)">
			<path id="Path_69_" class="st4" d="M214.6,31.8c-13,2-25.9,4.6-38.8,7.7c-21.7,5.1-43.1,11.6-64,19.3C96.8,49.6,80,43.9,62.9,40
				c-11.1-2.6-22.5-4.4-33.8-6.2C21,32.5,12.6,31,4.2,30.7c8.5-5.1,18-8.4,27.5-11.2c14.5-4.2,29.1-7.8,43.9-10.7
				c14.1-2.7,28.3-4.7,42.5-6c21,1.5,42,2.6,62.7,6.5c12.8,2.3,25.3,5.8,37.4,10.5c6.6,2.5,12.9,5.5,19.1,8.9
				C229.7,29.4,222,30.6,214.6,31.8z"/>
			<path id="Path_70_" class="st1" d="M48.7,34.1c-6.1-1.9-12.4-3.3-18.6-4.9c-5.6-1.5-11.6-2.8-17.2-0.7c-0.3,0.1-0.5,0.4-0.4,0.7
				c0,0.3,0.3,0.6,0.6,0.6c11.9,1,23.8,2.7,35.5,5.2c0.2,0,0.5-0.1,0.5-0.4C49,34.4,48.9,34.1,48.7,34.1z"/>
			<path id="Path_71_" class="st1" d="M111.2,52.9c-8.3-6.9-19.4-11.1-29.9-13c-0.8-0.1-1.2,1-0.3,1.3c10.6,3,19.7,7.7,29.3,12.9
				C111,54.6,111.9,53.5,111.2,52.9z"/>
			<path id="Path_72_" class="st15" d="M237.3,28.7c-6.1-3.5-12.5-6.4-19.1-8.9c-12.1-4.7-24.6-8.2-37.4-10.5
				c-20.8-3.9-41.7-5-62.7-6.5c-14.2,1.3-28.4,3.3-42.5,6c-13.9,2.7-27.7,6-41.4,9.9c1.5,0.4,2.9,0.8,4.4,1.2
				c6.5,2.1,39.4,13.2,47.8,16c6.2,2,12.3,3.9,18.5,5.5c5.6,1.5,9.6,3.8,14.7,6.1c6,2.7,12.8-2.3,19.1-3.9c7.3-1.8,14.8-3,22.1-4.2
				c15.2-2.4,30.9-6,46.3-6.9l1.6-0.1c1.9-0.3,3.8-0.6,5.7-0.9C222,30.6,229.7,29.4,237.3,28.7z"/>
			<path id="Shape_26_" class="st5" d="M241.4,28.4c-5.9-3.5-12-6.6-18.4-9.1c-12.5-5.2-25.4-9.1-38.7-11.6
				c-13.4-2.5-27-4.3-40.6-5.2c-3.6-0.3-7.3-0.5-10.9-0.7l-21-0.8l-7.6,1C93.8,3.2,83.6,4.9,73.5,6.9C58.2,9.8,43,13.7,28,18.4
				c-9.3,3-18.5,6.6-26.3,12.3L0,32l2,0.2c20.3,1.9,40.5,5.1,60.4,9.8c16.4,3.8,32.5,9.2,46.9,17.8l1.5,0.9l2.7-0.8
				c20.4-6.1,40.6-12.8,61.4-17.9c12.3-3,24.7-5.6,37.2-7.6c9.7-1.5,19.4-2.3,29-3.2l3.7-0.3L241.4,28.4z M214.6,31.8
				c-13,2-25.9,4.6-38.8,7.7c-21.7,5.1-43.1,11.6-64,19.3C96.8,49.6,80,43.9,62.9,40c-11.1-2.6-22.5-4.4-33.8-6.2
				C21,32.5,12.6,31,4.2,30.7c8.5-5.1,18-8.4,27.5-11.2c14.5-4.2,29.1-7.8,43.9-10.7c14.1-2.7,28.3-4.7,42.5-6
				c21,1.5,42,2.6,62.7,6.5c12.8,2.3,25.3,5.8,37.4,10.5c6.6,2.5,12.9,5.5,19.1,8.9C229.7,29.4,222,30.6,214.6,31.8z"/>
		</g>
		<g id="burger-patty" transform="translate(11.000000, 71.000000)">
			<path id="Shape_27_" class="st8" d="M203.9,33.6c-0.8,0.1-1.1-1-0.3-1.2c3.7-0.8,13.1-3.2,13.3-8.1c-0.5-0.7-1.1-1.4-1.7-2
				c-3.5-3.2-7.7-5.5-12.2-7c-8.4-2.9-17.3-4.7-26-6.3c-32.7-6.1-66.2-6.6-99.4-5.5c-16.4,0.6-33,1.8-48.9,6
				c-7.4,1.9-16.9,4-22.1,10c-3,3.4-4.3,7.9-4.8,12.5c0.1-0.1,0.3-0.2,0.4-0.1c0.2,0.1,0.2,0.2,0.2,0.4c-0.6,3.9-0.6,7.8,0,11.7
				c0.4,2.4,1.1,4.3,3.6,5.4c1.8,0.8,4,1.2,5.9,1.8c5.3,1.9,10.5,2.4,16,3c4.1,0.5,7.8,2.3,11.8,3.1c4.5,0.9,9.2,0.3,13.8,0.9
				c3.7,0.5,7.1,1.9,10.8,2.7c9.3,2.1,19-0.7,28.4,1c5,0.9,9.6,2.5,14.8,2.2c4.3-0.2,8.6-1.2,12.8-1.6c5-0.5,9.9,0.2,14.8,0.1
				c4.7-0.1,9.4-0.7,14-1.2c9.7-1,19.8-0.5,29.3-2.6c3.9-0.9,7.8-2.1,11.8-2.5c4.4-0.5,8.8-0.2,13.2-0.8c7.2-0.9,15.3-2.9,17.2-10.9
				c1-4,1.2-8.2,0.7-12.3c-0.8-2.2-1.8-4.3-3-6.3C217.2,31,207.9,33,203.9,33.6z M24.9,33.2c-6.7-0.3-15.1-2-20.2-6.6
				c-0.4-0.3,0.1-1,0.5-0.7c3,2,6.7,2.7,10.1,3.8c3.2,1,6.5,1.9,9.8,2.5C25.6,32.3,25.5,33.2,24.9,33.2L24.9,33.2z M76.9,37.5
				c-14.9,0.3-29.9-0.2-44.7-1.6c-0.6-0.1-0.6-1,0-1c14.9,0.5,29.8,0.8,44.7,1.7c0.3,0,0.5,0.2,0.5,0.5S77.2,37.5,76.9,37.5
				L76.9,37.5z M118.6,39.9c-5.5,0.8-11.1,1.1-16.7,0.9c-4.2,0-9.5,0.3-13.1-2.3c-0.1-0.1-0.1-0.2-0.1-0.3s0.1-0.2,0.2-0.2
				c4.6-0.1,9.2,0.6,13.8,0.5c5.2,0,10.5-0.2,15.7,0C119.2,38.6,119.4,39.8,118.6,39.9L118.6,39.9z M195.7,35.8
				c-19,4.8-38.7,6.7-58.3,5.4c-0.2,0-0.3-0.2-0.3-0.4s0.1-0.3,0.3-0.4c19.4-0.8,38.8-2.8,58.1-5.8
				C196.1,34.7,196.4,35.7,195.7,35.8L195.7,35.8z"/>
			<path id="Path_73_" class="st7" d="M6.8,35.5c0.8,3.2-0.8,8.3,1,10.9c-0.4-0.6,3,1.6,2.7,1.5c2.7,1,4.1,0.2,7.1,0.1
				c3.3-0.1,2.3,0.9,4.8,2.1c0.6,0.3,3.6,1.8,3.7,1.8c1.7,0.2,3.8-0.7,5.4-0.7c0,0,1,1.2,1.6,1.2c1.3,0.1,2.5-1.3,4.2-1
				c0.3,4.3,3.3,3.6,6,2.5c3.2-1.4,4.3-2.5,6.3-5.6c0.1,1.3,0.1,7.8,1.8,8.2c1.9,0.4,4.2-4.8,5.2-6c1,3.4,2.3,9.1,7.2,7
				c2.9-1.3,4-8.1,2.4-10.6c-2.4-3.8-8.8-1-12.3-2.5c-1.7-0.7-2.9-3.2-5-3s-2.2,2.1-3.8,3.7c-1.6-0.8-3.5-3.5-5.2-3.6
				c-1.6,0-2.3,1.6-3.8,2c-2.9,0.7-6.6-1.9-9.5-2.4c-2-0.4-3.9-1-5.8-1.3c-1.5-0.3-3.1-0.3-4.6,0c-1.5,0.2-1.6,1.9-3.4,1.1
				C10.2,39.4,11.8,36.1,6.8,35.5z"/>
			<path id="Shape_28_" class="st6" d="M218.2,26.1c-1,4.9-10.3,7-14.3,7.5c-0.8,0.1-1.1-1-0.3-1.2c3.7-0.8,13.1-3.2,13.3-8.1
				c-0.5-0.7-1.1-1.4-1.7-2c-3.5-3.2-7.7-5.5-12.2-7c-8.4-2.9-17.3-4.7-26-6.3c-32.7-6.1-66.2-6.6-99.4-5.5
				C65.8,3.8,54.1,4.8,42.5,6.6c-3.8,5.8-4.7,12.6-0.8,20.3c2,3.9,5.4,7,9.6,8.5c8.6,0.3,17.1,0.6,25.6,1.1c0.2,0,0.4,0.2,0.4,0.5
				c0,0.2-0.2,0.4-0.4,0.5c-6,0.2-12,0.2-18,0c5.1,0.6,10.3,1,15.5,1.1c6,0.3,11.7,1,17.2,1.3c-1-0.3-1.9-0.8-2.7-1.4
				c-0.1-0.1-0.1-0.2-0.1-0.3c0-0.1,0.1-0.2,0.2-0.2c4.6,0,9.2,0.6,13.8,0.5c5.2,0,10.5-0.2,15.7,0c0.1,0,0.2,0,0.3,0.1
				c3.2-0.1,6.3,0.1,9.4,0.8c7.1,1.6,12.1,6.4,19.3,6.1c9-0.4,11.8,2.8,7.2,12c-2.4-1.7-3.4-5.1-4.1-8c-2,2.3-2.3,6.8-2.2,9.8
				c-1.8-0.7-2.4-2.9-3.3-4.7c-3.2,2.8-2.2,5.4-7.6,6.1c-3.1,0.4-6.5,0.5-9.6,0.8c-4.3,0.3-9.2,1.8-13.4,1.4l-0.4,0.6
				c2.1-0.3,4.1-0.6,6.2-0.8c5-0.5,9.9,0.2,14.8,0.1c4.7-0.1,9.4-0.7,14-1.2c9.7-1,19.8-0.5,29.3-2.6c3.9-0.9,7.8-2.1,11.8-2.5
				c4.4-0.5,8.8-0.2,13.2-0.8c7.2-0.9,15.3-2.9,17.2-10.9c1-4,1.2-8.2,0.7-12.3C220.5,30.2,219.4,28.1,218.2,26.1z M195.7,35.8
				c-19,4.8-38.7,6.7-58.3,5.4c-0.2,0-0.3-0.2-0.3-0.4s0.1-0.3,0.3-0.4c19.4-0.8,38.8-2.8,58-5.8C196.1,34.7,196.4,35.7,195.7,35.8z
				"/>
			<path id="Shape_29_" class="st5" d="M220.6,25.1c-0.1-0.2-0.4-0.4-0.6-0.4c-1.7-2.5-3.9-4.6-6.3-6.4c-6.8-4.9-15.4-6.8-23.4-8.7
				c-18-4.1-36.3-6.7-54.7-7.8C117,0.8,98.4,0.8,79.8,1.4C62.2,1.9,44.4,3.1,27.4,7.6C19.5,9.8,9.4,12.1,4.2,19
				C0,24.6,0.1,31.6,0.5,38.4c-0.4,4-0.1,8.2,2.1,10.8c1.6,2,4.4,2.3,6.7,3.1c4.9,1.8,9.9,3,15.1,3.5c3,0.1,5.9,0.6,8.8,1.4
				c2,0.6,3.9,1.5,6,2c4.3,0.9,8.7,0.3,13,0.8c5,0.5,9.5,2.6,14.4,3.3c5.5,0.8,11.1,0.2,16.7,0.1c5.3,0.1,10.6,0.7,15.8,2
				c4.6,0.8,9.3,0.9,13.9,0.1c11.5-1.6,23-0.7,34.6-1.9c5.2-0.5,10.5-1.1,15.7-1.4c5.3-0.2,10-0.3,15-1.4c5.2-1.2,10.2-2.6,15.6-2.8
				c4.4-0.1,8.8-0.4,13.2-1.1c6.9-1.2,13.5-4.4,15.3-11.8C223.7,39.4,224.2,30.2,220.6,25.1z M220.6,44.8c-2,8-10,10.1-17.2,10.9
				c-4.4,0.5-8.8,0.3-13.2,0.8c-4,0.4-7.8,1.6-11.8,2.5c-9.5,2.2-19.6,1.7-29.3,2.7c-4.7,0.5-9.4,1.1-14,1.2
				c-5,0.1-9.9-0.7-14.8-0.1c-4.3,0.5-8.5,1.4-12.8,1.6c-5.2,0.3-9.8-1.3-14.8-2.2c-9.4-1.7-19,1.1-28.4-1c-3.6-0.8-7-2.2-10.8-2.7
				c-4.6-0.6-9.3,0.1-13.8-0.9c-4-0.9-7.6-2.7-11.8-3.1c-5.5-0.6-10.7-1.1-16-3c-1.9-0.7-4.1-1-5.9-1.8c-2.4-1-3.2-3-3.6-5.4
				c-0.6-3.9-0.6-7.8,0-11.7c0-0.2-0.1-0.3-0.2-0.4c-0.2-0.1-0.3,0-0.4,0.1c0.6-4.6,1.9-9.1,4.8-12.5c5.2-6,14.7-8.1,22.1-10
				c16-4.2,32.5-5.4,48.9-6c33.2-1.2,66.7-0.7,99.4,5.4c8.7,1.6,17.6,3.4,26,6.4c4.5,1.4,8.7,3.8,12.2,6.9c0.6,0.6,1.2,1.3,1.7,2
				c-0.2,5-9.6,7.4-13.3,8.2c-0.8,0.2-0.4,1.3,0.3,1.2c4-0.5,13.3-2.6,14.3-7.5c1.2,2,2.2,4.1,3,6.3
				C221.8,36.6,221.6,40.7,220.6,44.8z"/>
		</g>
		<g id="lettuce-green" transform="translate(0.000000, 65.000000)">
			<path id="Path_74_" class="st5" d="M87.9,42.6c-14.9-0.9-29.8-1.2-44.7-1.7c-0.6,0-0.6,0.9,0,1c14.9,1.4,29.8,2,44.7,1.7
				c0.3,0,0.5-0.2,0.5-0.5S88.2,42.6,87.9,42.6z"/>
			<path id="Path_75_" class="st5" d="M129.4,44.6c-5.2-0.2-10.5,0-15.7,0c-4.6,0-9.2-0.6-13.8-0.5c-0.1,0-0.2,0.1-0.2,0.2
				c0,0.1,0,0.2,0.1,0.3c3.6,2.6,8.8,2.2,13.1,2.3c5.6,0.2,11.2-0.1,16.7-0.9C130.4,45.8,130.2,44.6,129.4,44.6z"/>
			<path id="Path_76_" class="st5" d="M206.4,40.8c-19.2,3-38.6,4.9-58,5.8c-0.2,0-0.3,0.2-0.3,0.4c0,0.2,0.1,0.3,0.3,0.4
				c19.6,1.3,39.3-0.6,58.3-5.4C207.4,41.7,207.1,40.7,206.4,40.8z"/>
			<path id="Shape_30_" class="st9" d="M238,24.4c-1.2-1.1-2.6-2.2-4-3.1c-0.2-0.1-0.3-0.3-0.4-0.5c-1.4-0.6-2.9-1.1-4.4-1.5
				c-3.2-0.8-7.2-0.6-10.1-2.3c-3.1-1.8-2.2-6.1-5.2-7.5c-4.3-2.1-10.3-1.1-14.8-0.8c-3.4,0.3-5.6,0-8.3-1.9c-2.3-1.6-3.2-2.4-6-1.8
				c-0.9,0.2-1.7,0.4-2.5,0.6c-2.1,0.5-4.2,1.4-6.3,1.6c-1,0.1-1.9-0.1-2.8-0.5c-2.1-0.9-4.3-1.1-6.5-0.6c-1.1,0.2-2.2,0.3-3.2,0.1
				c-0.2,0.1-0.4,0.1-0.6,0c-3.6-1.8-6.2-4.4-10.6-2.4c-2,0.9-3.8,2.1-6,2.4c-1.4,0.1-2.9-0.1-4.2-0.6c-2.1-0.7-3.1-1.6-5.5-0.9
				c-1,0.3-1.9,0.8-2.9,1.1c-4.7,1.4-6.1-3.5-10.5-3c-3.8,0.4-6.8,3.3-10.8,1.7c-1.7-0.7-3.1-2.1-4.9-2.7c-3-0.9-5.9,1-8.5,2.2
				c-3.3,1.6-6.3,2.3-9.9,1c-2.5-0.9-4.6-2-7.4-2.1c-3.1,0-6.2,0.9-8.9,2.4c-1.1,0.8-2.3,1.4-3.5,2c-1.1,0.7-2.4,1-3.8,1
				c-2.4-0.1-4.3-1.4-6.8-0.9c-2,0.3-3.8,1.9-5.7,2.6c-1.6,0.7-3.5,0.7-5.1,0.1c-1.8-0.7-3.4-2.2-5.3-2.4c-2.9-0.4-4.6,0.6-6.8,2.3
				c-2,1.5-3.6,2.1-6.1,1.4s-3.8-1.9-6.3-0.8s-3.1,2.6-4.5,4.5c-0.7,1.1-1.6,2-2.7,2.7c3.8-0.6,7.9-2.4,11.6-1
				c0.1,0,0.1,0.1,0.2,0.2c0,0.1,0,0.2-0.1,0.2c-0.1,0.1-0.1,0.1-0.2,0.1c-3.7-1-7.6,1.5-11.1,2.2c-3.5,0.7-7.4,0.1-10.4,3
				c-0.1,0.1-0.2,0.1-0.3,0.1c-0.2,1.6,0.7,3.5,1.4,5.2c0.3,0.6,0.4,1.3,0.4,1.9c1.5-0.6,3-1.1,4.5-1.5c5.1-1.5,9.8-3.7,15.2-3.8
				c0.4,0,0.3,0.5,0,0.5c-4.2,0.4-7.7,2-11.6,3.6c-3,1.2-7.4,1.9-9.2,4.8c-0.1,0.1-0.2,0.2-0.3,0.3c-0.9,1-1.7,2.1-2.4,3.3
				c-1,2-0.7,4.7,2,4.9c1.3,0,2.6-0.2,3.8-0.6c1.2-0.4,2.6-0.9,4-1.3c6.3-3.3,13-5.6,20-6.9c0.5-0.1,0.7,0.6,0.2,0.8
				c-5.6,1.3-11,3.3-16.2,5.9c0.9,0.2,1.8,0.6,2.5,1.3c1.1,1.2,1.8,2.6,2.2,4.1c0.7,2.1,0.6,3.9,2.8,4.3c3.2,0.5,2.6-2.3,4.8-3.9
				l0.3-0.2c0.1-0.1,0.2-0.2,0.3-0.3l0.5-0.2c0.4-0.2,0.8-0.4,1.2-0.5c7.5-3,15.7-4.5,22.7-8.7c0.4-0.3,0.8,0.4,0.4,0.7
				c-6.2,3.8-13.1,5.6-19.8,8.3c0.4,0.3,0.8,0.6,1.1,1.1c0.4,1,0.7,2,1,3c0.8,2,2.6,3.3,4.7,3.4c3.6,0.5,6.9-1.6,9.8-3.5
				c1.6-1.1,3.2-2,5-2.6c4-2.6,8.1-5.1,12-7.9c0.4-0.3,0.8,0.3,0.4,0.6c-3.1,2.3-6.2,4.5-9.3,6.8c1.1,0.1,2.2,0.5,3.1,1.1
				c1.3,1.1,2.6,2.3,3.7,3.7c1.9,1.9,3.3,2.5,5.6-0.1c0.2-0.2,0.4-0.5,0.6-0.8c-0.2-0.3-0.2-0.7,0.1-1c2.5-2.8,5.5-5,8.2-7.5
				c2.8-2.5,5.4-5.4,8.4-7.8c0.4-0.3,0.9,0.2,0.5,0.6c-2.7,2.7-5.1,5.6-7.9,8.3c-1.2,1.2-2.6,2.3-3.9,3.5c0.7,0,1.5,0.3,2,0.8
				c1,0.9,0.7,1.8,0.9,3.1c1.1,6.6,7.8,3.9,11.6,2c0.5-0.3,2.9,0,3.7-0.2c2.2-0.5,2.8-1.3,4.2-3c1.2-1.5,2.4-2.3,3.7-2.2
				c-1.6-3.8-2.2-9-0.4-11.8c0.1-0.1,0.2-0.2,0.4-0.2c0.2,0,0.3,0.1,0.4,0.2s0.1,0.3,0,0.4c-2.3,4,0.5,9.4,2.3,13.1
				c0.5,0.6,0.9,1.8,1.5,2c1.9,0.9,2.4-1.2,3.7-1.9c1.4-0.8,3.1-0.9,4.5-0.1c0.9,0.5,1.7,1.1,2.5,1.7c1,1.8,5.9,3.8,5-3.8
				c-0.1-0.7,0.8-0.9,1.4-1.2c0.3-0.2,0.7-0.3,1.1-0.4c-2.2-2.4-4-5.3-5.3-8.3c-0.1-0.3,0.3-0.5,0.5-0.2c1.6,3.6,4.3,6.2,7.2,8.6
				c3.2,1.1,5.9,5.5,9.7,4.4c4.1-1.2,7.4-3.1,10.2,1.3c0.4,0.9,0.9,1.8,1.5,2.7c2.8,3.4,6.1,1.8,8.7-0.5c2-1.7,3.6-3.9,6-5.1
				c1.1-0.6,2.4-0.9,3.6-1c-0.5-0.6-1.1-1.1-1.6-1.7c-1.6-1.3-3.2-2.4-5-3.3c-2.5-1.6-4.9-3.6-5-6.8c0-0.3,0.5-0.4,0.5-0.1
				c0.6,3.9,4.3,5.2,7.4,6.9s5.1,4.8,8.2,6.4c0.2,0.1,0.4,0.4,0.4,0.6c1.8,1.5,3.6,3.2,6,2.3c0.3-0.1,0.6-0.1,0.8,0
				c1.7-0.8,3.3-2.2,5.1-2.9c2.1-0.7,3-0.1,5,0.5l0.9,0.7c2.1,0.6,3.7,0.3,5-1c0.7-0.4,1.2-1,1.9-1.3c0.8-0.4,1.6-0.6,2.4-0.6
				c-3.2-2-6.7-3.7-8.7-6.8c-0.3-0.5,0.4-0.8,0.7-0.4c3,4,8.8,3.9,11.7,7.8c3.6,1.2,9.2,3.5,9-2.6c0-1.6-1-2.9-0.3-4.5
				c0.5-1.2,1.6-1.9,2.8-2c-2.6-1.5-5.6-1.7-9-2.2c-3.3-0.6-6.5-1.6-9.6-3.1c-0.4-0.2-0.1-0.8,0.4-0.6c3,1.3,6.1,2.2,9.4,2.4
				c2.1,0.2,4.3,0,6.4,0.4c2.9,0.6,5.5,2.5,7,5.1c0.2,0.3,0.2,0.7-0.1,0.9c0.3,0.5,0.6,1.1,0.9,1.6c1.4,2.3,3.5,2.7,4.8,0.4
				c0.3-0.6,0.4-1.3,0.7-1.9c1.7-3.7,3.7-3,7.1-2.7c2,0.9,5.1,1,3.3-1.6c-0.4-0.4-0.8-0.8-1.2-1.2c-0.4-0.4-0.7-1-0.9-1.5
				c-0.3-0.9-0.2-1.9,0.4-2.6c1-1.1,5.6-2,3.6-4.3C239.3,25.5,238.7,24.9,238,24.4z M44.3,31.3c-1.9,0.3-4.5,0.3-6,1.6
				c-0.3,0.3-0.8-0.2-0.5-0.5c1.6-1.6,4.2-1.7,6.3-2.1C44.7,30.1,45,31.1,44.3,31.3z"/>
			<path id="Path_77_" class="st10" d="M231.6,27.1c-1.6-2.7-4.8-4-8.2-4.7l-0.5-0.3c-3.3-1.9-9.4-2.1-12-4.8
				c-2.9-3.1-0.4-6.3-5.9-7c-5-0.7-9.4,3.4-14.7,1.4c-1.9-0.7-2.5-1.8-4.6-2.2s-3.8,0.3-5.6,0.8c-3.2,0.9-2.5,0.8-5.2-0.1
				c-1.4-0.6-2.9-1-4.5-1.1c-2.3-0.1-4.5,0.4-6.8,0.4c-3.6,0-7-2-10.4-1.9c-3,0.1-4.7,2.8-7.7,3c-2.8,0.2-4.6-1.8-7.1-2.3
				c-3.3-0.6-3.6,1.3-6.5,2.2c-3.5,1-3.6-1.2-6-2.6c-4.5-2.7-10-0.1-14.4,2.2c-1.7,1.1-3.4,2.3-4.8,3.7c-2.6-3.1-8.8-2-12.2-0.7
				c-5.3,2.1-9.5,9.6-15,9.9c-4.2,0.3-5.5-1.1-9.5,2.3c-2.3,2-2.3,4.1-4,6.1c-2.3,2.8-10.5,4-7,9c3.4-0.6,6.6-1.7,9.5-3.5
				c4.3-2.3,3.8-1.4,5,2.6c0.7,2.4-0.4,2.7,2.7,2.7c2.4,0,4.2-1.8,6-3c5.2-3.3,10-7.1,14.5-11.3c-0.2,1.2-0.9,2.4-2.7,4
				c-3.9,3.5-1.7,3.6-2.2,8.1c-0.4,3.5-5.2,7.3,1.1,7.4c3,0.1,2.8-2,4.8-2.6c1.7-0.5,1.7,0.2,3.3,0.1c5.5-0.2,3.1-1,3-5.3
				c-0.1-2.2,1.4-9.1,4.5-8.1c1.7,0.6,2.3,4.9,3.3,6.3c0.8,1.1,2.2,1.9,2.9,2.9c1.4,2.1,2.1,7.3,5.9,6.2c2.7-0.7,1.9-3.3,5.9-3.4
				c0.2-3.6-5.6-7.3-6.9-10.2c3.8-0.7,6.8,4.4,10.7,5.5c3.5,1.8,9.2,3.1,11.7,3.6c2.8,0.6,5.5-0.6,7.8,1.5c1.7,1.6,1.1,5.1,4.7,4.5
				c5-0.9,5.4-8,11.5-5.2c2.6,1.2,4.4,3,6.8,4.3c1.4,0.8,2.9,1.2,4.4,1.3c4.2-0.4,2.8-3.2,4.1-5.6c4-7.3,8.7,1.2,13,0.8
				c1.7-0.2,1.9-2,3.5-2.2c1.2-0.1,3,1.3,4.3,1.4c1.3,0.2,4.2,0.4,5.4,0c3.5-1.4,0.9-1.5,0.6-4.1c-0.6-5.2,6-4.2,9.9-3.6
				c3.5,0.6,9.3,4.8,8.5-2.2C230,32.6,234.2,31.4,231.6,27.1z"/>
			<path id="Shape_31_" class="st5" d="M240.6,23.8c-1.4-1.6-3.1-2.9-5-3.9l-0.5-0.4c-0.2-0.1-0.4-0.2-0.6-0.2
				c-0.3-0.1-0.5-0.2-0.8-0.3c-4.1-1.5-10.2-0.9-13.9-3.2c-2.9-1.8-1.5-4.3-3.3-6.4c-1-1-2.3-1.6-3.7-1.8c-5-1.2-9.9-0.5-15-0.3
				s-6.9-4.5-11.6-4.1c-1.9,0.3-3.8,0.7-5.7,1.2c-1.2,0.4-2.5,0.7-3.7,1c-3,0.4-2.7-0.3-4.6-1.1c-3-1.2-6.1,0.7-9,0.6
				c-3.8-1.9-6.1-4.6-10.5-2.9c-3,1.1-5.6,3.5-9.1,2.7c-2-0.5-3.2-1.8-5.3-1.8c-1.9,0-3.4,1.1-5.2,1.5c-3.1,0.7-4.5-1.8-6.9-2.8
				c-4-1.6-7.6,2-11.5,1.9c-3.9-0.1-6.1-3.8-10.2-3.2c-4.7,0.7-8.4,5-13.4,4C86.6,3.5,83.9,1.2,78.9,2c-2,0.3-3.9,0.9-5.7,1.8
				c-0.9,0.6-1.7,1.2-2.5,1.9c-0.1,0-0.1,0-0.2,0c-4,2.6-6.8-0.2-10.8,0.1c-4,0.3-6.8,4-10.8,3c-2.9-0.7-4.9-2.7-8.1-2.7
				c-3.2,0-4.1,2-6.8,3.2c-3.9,1.8-6.4-1.6-10.1-0.9c-1.7,0.4-3.2,1.4-4.3,2.7c-1.1,1.4-1.7,3.1-2.9,4.4c-1.7,1.7-3.2,1.6-5.4,1.7
				c-0.9,0-2.1,0-2.8,0.7c-2.7,0.6-5,2.2-5.2,5.3s3.1,5.2,1.7,8.7c-0.9,2.1-3.1,3.5-3.9,5.7c-1.1,3.1,0.8,5.8,4,6.3
				c2.4,0.4,4.5-0.3,6.7-1.1c1.6-0.6,4-1.6,5.8-1c2.3,0.8,2.6,3.6,3.3,5.5c1.3,3.4,4.1,5.3,7.4,2.8c1-0.7,1.6-1.8,2.5-2.5
				c2.9-2.5,3.3-0.2,4.5,1.8s2.1,3.2,4.3,4.1c5.6,2.3,10.6-1.5,15.2-4.3c2.6-1.5,5.7-2.3,8.2-0.2c0.8,0.7,1.4,1.6,2.2,2.3
				c1.2,1.2,2.5,2.5,4.3,2.7c2,0.2,3.4-1,4.6-2.5c0.4-0.5,0.7-1.1,1.1-1.6c0.4-0.8,1.1-1.5,1.8-2c1.2-0.7,2.2-0.8,2.6,0.8
				c0.4,0.6,0.1,2.5,0.5,3.3c2.8,5.7,10,3.1,14.2,1c0.2-0.1,5.7,0,7.7-2.4c0.4-0.5,0.7-1,1-1.5c1.6-1.2,2.8-1,3.4,0.5
				c0.4,0.4,0.7,1,1.1,1.5c0.7,0.8,1.8,1.2,2.9,1.1c4-0.6,1.2-5,7.8-1.4c1.6,0.9,2.6,2.5,4.7,2.6c1.3,0.1,2.6-0.4,3.5-1.4
				c1.3-1.7-0.2-7.5,5.1-4.4c1.7,1,2.6,2.6,4.7,3.1c2.1,0.4,3.9-0.5,5.7-1.2c6.4-2.4,6,5.8,11.3,6.8c5.7,1.1,8.3-4.7,12.5-7
				c2.3-1.3,5.2-1.3,7.3,0.2c0.9,0.8,1.8,1.5,2.8,2.2c1.5,0.9,3.3,1.1,4.9,0.4c0.3-0.1,0.5-0.3,0.6-0.5c0.4-0.1,0.8-0.2,1.2-0.4
				c2.5-1,4-3.1,7.4-1.7c0.8,0.3,1.3,1.1,2.1,1.4c1.8,0.8,3.2,0.3,4.8-0.7c1.9-1.3,3.3-2.7,5.9-2.5c1.8,0.1,3.3,1,5,1.4
				c3.3,0.9,7.9,0.5,8.7-3.6c0.2-1.1-0.9-3.1-0.6-3.9c1.9-4.9,4.1,0.6,4.7,1.4c0.9,1.4,2.1,2.8,3.8,3c1.2,0.2,2.5-0.3,3.2-1.3
				c0.6-0.7,1-1.5,1.3-2.4c1.2-2.9,2.6-3.3,5.9-3c1.7,0.2,3.2,1,4.8-0.2c1.2-0.8,1.7-2.4,1.1-3.7c-0.2-0.5-0.7-0.9-1-1.4
				c-1.2-0.7,0.9-2.3,1.4-2.3c1.4-0.5,2.4-0.7,2.8-2.3C244.1,27.8,242.6,25.6,240.6,23.8z M235.8,33.3c0.2,0.6,0.5,1.1,0.9,1.5
				c0.3,0.4,0.7,0.8,1.2,1.2c1.8,2.6-1.4,2.5-3.3,1.6c-3.4-0.3-5.5-1-7.1,2.7c-0.3,0.6-0.4,1.3-0.7,1.9c-1.3,2.4-3.4,2-4.8-0.4
				c-0.8-1.4-1.4-3-2.8-3.9c-1.9-1.2-4.4-1-5.4,1.2c-0.7,1.6,0.2,2.9,0.3,4.5c0.2,7.4-7.9,2.5-10.9,2.2c-1.4-0.2-2.9-0.1-4.2,0.5
				c-0.7,0.3-1.2,1-1.9,1.3c-1.2,1.3-2.9,1.6-5,1l-0.9-0.7c-2-0.5-2.8-1.2-5-0.5c-1.8,0.6-3.4,2-5.1,2.9c-0.3-0.1-0.6-0.1-0.8,0
				c-3.6,1.4-5.8-3.1-8.8-4c-1.9-0.5-3.9-0.2-5.7,0.7c-2.4,1.2-4,3.3-6,5.1c-2.6,2.2-5.9,3.9-8.7,0.5c-0.5-0.9-1-1.8-1.4-2.7
				c-2.8-4.4-6.1-2.5-10.2-1.3c-5.1,1.5-8.1-6.9-13.2-4.1c-0.5,0.3-1.5,0.6-1.4,1.2c0.9,7.6-3.9,5.6-5,3.8c-0.7-0.7-1.6-1.3-2.5-1.7
				c-1.4-0.8-3.1-0.7-4.5,0.1c-1.2,0.8-1.7,2.8-3.6,1.9c-0.7-0.3-1.1-1.6-1.7-2.2c-2.4-2.5-4.3-1.7-6.3,0.7c-1.4,1.7-2,2.5-4.2,3
				c-0.8,0.2-3.2-0.1-3.7,0.2c-3.8,2-10.5,4.6-11.6-2c-0.2-1.2,0.1-2.2-0.9-3.1c-2-1.8-5-0.2-6.4,1.5c-0.6,0.7-1,1.7-1.6,2.5
				c-2.3,2.6-3.7,2-5.6,0.1c-1.1-1.3-2.4-2.6-3.7-3.7c-3.9-2.6-7.8-0.2-11.2,1.9c-2.9,1.9-6.2,4-9.9,3.5c-2.1-0.1-3.9-1.5-4.6-3.4
				c-0.3-1-0.6-2-1-3c-1.6-2.4-4.5-1.7-6.6-0.2c-2.1,1.5-1.6,4.4-4.8,3.9c-2.2-0.4-2.1-2.2-2.8-4.3c-0.4-1.6-1.1-3-2.2-4.1
				c-3.1-2.8-7.2-0.7-10.5,0.3c-1.2,0.4-2.5,0.7-3.8,0.6c-2.7-0.2-3-3-2-4.9c0.9-1.8,2.6-3,3.4-5C8,30.8,8,29.2,7.4,27.9
				c-1.1-2.7-2.7-5.7,0.3-7.8c1.3-0.8,2.8-1.4,4.3-1.7c0.8,0.2,1.7,0.3,2.5,0.2c1.9-0.4,3.2-1.8,4.3-3.3c1.4-2,2.1-3.5,4.5-4.5
				s4,0.1,6.3,0.8s4.1,0.1,6.1-1.4c2.2-1.6,3.8-2.7,6.8-2.3c2,0.3,3.5,1.8,5.3,2.4c1.7,0.6,3.5,0.6,5.1-0.1c1.9-0.7,3.7-2.2,5.7-2.6
				c2.5-0.4,4.4,0.8,6.8,0.9c1.3,0,2.6-0.3,3.8-1c1.2-0.6,2.4-1.2,3.5-2c2.7-1.6,5.8-2.4,8.9-2.4c2.7,0,4.9,1.2,7.4,2.1
				c3.6,1.3,6.5,0.6,9.9-1c2.6-1.2,5.6-3.1,8.6-2.2c1.8,0.5,3.1,2,4.9,2.7c3.9,1.6,7-1.3,10.8-1.7c4.4-0.5,5.8,4.4,10.5,3
				c1-0.3,1.9-0.8,2.9-1.1c2.3-0.6,3.4,0.2,5.5,0.9c1.3,0.5,2.8,0.7,4.2,0.6c2.2-0.3,4-1.5,6-2.4c4.4-2,6.9,0.6,10.6,2.4
				c0.2,0.1,0.4,0.1,0.6,0c1.1,0.1,2.2,0.1,3.2-0.1c2.2-0.5,4.5-0.3,6.5,0.6c0.9,0.4,1.8,0.6,2.8,0.5c2.1-0.2,4.2-1.1,6.3-1.6
				c0.9-0.2,1.7-0.4,2.6-0.6c2.8-0.6,3.8,0.2,6,1.8c2.7,1.9,4.9,2.2,8.3,1.9c4.6-0.4,10.5-1.3,14.8,0.8c3,1.4,2.1,5.7,5.2,7.5
				c3,1.7,6.9,1.5,10.1,2.3c1.5,0.4,3,0.9,4.4,1.5c0.1,0.2,0.2,0.4,0.4,0.5c1.4,0.9,2.8,1.9,4,3.1c0.7,0.6,1.3,1.3,1.9,1.9
				c2,2.3-2.7,3.2-3.6,4.3C235.6,31.4,235.5,32.4,235.8,33.3L235.8,33.3z M90,33.4c-3,2.4-5.5,5.2-8.4,7.8c-2.8,2.6-5.8,4.7-8.2,7.5
				c-0.7,0.8,0.4,1.9,1.1,1.1c2.5-2.8,5.5-5,8.2-7.6c2.7-2.6,5.1-5.6,7.9-8.3C90.9,33.5,90.4,33,90,33.4z M69.3,38.3
				c-4.1,2.9-8.3,5.5-12.5,8.2c-0.8,0.5,0,1.8,0.8,1.3c4-3,8.1-5.9,12.1-8.8C70.1,38.6,69.7,38,69.3,38.3z M55.1,35.9
				c-7.5,4.5-16.4,5.9-24.3,9.4c-0.9,0.4-0.1,1.8,0.8,1.4c7.9-3.7,16.4-5.5,23.9-10C55.9,36.3,55.5,35.6,55.1,35.9L55.1,35.9z
				 M33.9,33.3c-7.3,1.5-14.6,3.7-21.1,7.5c-0.4,0.2-0.5,0.7-0.3,1c0.2,0.4,0.7,0.5,1,0.3c6.4-3.6,13.4-6.3,20.5-8.1
				C34.6,33.9,34.4,33.2,33.9,33.3z M38.3,32.9c1.6-1.3,4.1-1.3,6-1.6c0.7-0.1,0.4-1.2-0.3-1c-2.1,0.4-4.7,0.6-6.3,2.1
				C37.4,32.8,37.9,33.2,38.3,32.9L38.3,32.9z M104.6,34.4c-2.5,3.8-0.6,11.7,2.2,14.9c0.6,0.6,1.4-0.2,1.1-0.9
				c-1.8-3.7-5-9.5-2.6-13.6c0.1-0.1,0.1-0.3,0-0.4s-0.2-0.2-0.4-0.2C104.8,34.1,104.7,34.2,104.6,34.4z M122,35.8
				c1.9,4.7,5.1,8.8,9.1,11.9c0.9,0.7,2.1-0.5,1.2-1.2c-3.8-3.3-7.7-6.1-9.8-10.9C122.3,35.3,121.9,35.5,122,35.8z M157.7,34.3
				c0,3.2,2.5,5.2,5,6.8c1.8,1,3.4,2.1,5,3.4c1.8,1.6,3,3.5,5.2,4.6c1,0.5,1.9-1,0.9-1.5c-3.1-1.6-5-4.7-8.2-6.4
				c-3.2-1.7-6.8-3-7.4-6.9C158.2,33.9,157.7,34,157.7,34.3L157.7,34.3z M198,32c3,1.5,6.2,2.5,9.6,3.1c4.9,0.8,9,0.7,12.1,5.1
				c0.6,0.9,2,0.1,1.4-0.9c-1.5-2.6-4.1-4.5-7-5.1c-2.1-0.4-4.3-0.2-6.4-0.4c-3.2-0.3-6.4-1.1-9.4-2.4C197.9,31.2,197.6,31.8,198,32
				L198,32z M192.6,39c2.6,4,7.8,5.7,11.4,8.6c0.7,0.5,1.8-0.2,1.3-1c-2.8-4.2-8.9-4-11.9-8.1C193,38.1,192.3,38.5,192.6,39
				L192.6,39z M27.6,24.5c-5.4,0.1-10.1,2.4-15.2,3.8c-2.6,0.7-6.7,1.2-7.1,4.5c-0.1,0.4,0.1,0.8,0.5,1c0.4,0.2,0.8,0,1-0.3
				c1.8-2.9,6.2-3.6,9.2-4.8c3.8-1.6,7.4-3.2,11.6-3.6C27.9,25.1,28,24.5,27.6,24.5z M27.9,16.9c-4-1.5-8.5,0.6-12.4,1.1
				c-3.8,0.5-7.9,0-10,3.9c-0.1,0.2,0,0.5,0.1,0.6c0.2,0.1,0.4,0.1,0.6,0c3-2.9,6.7-2.2,10.4-3c3.7-0.8,7.5-3.2,11.1-2.2
				c0.1,0,0.2,0,0.3-0.2C28,17,28,16.9,27.9,16.9L27.9,16.9z"/>
			<path id="Path_78_" class="st1" d="M30.9,26.8c-8.1,3.7-17.4,4.4-24.5,10c-0.4,0.3,0.1,0.8,0.5,0.6c8-3.6,16.7-5.7,24.5-9.8
				C32,27.3,31.5,26.5,30.9,26.8z"/>
			<path id="Path_79_" class="st1" d="M37.9,34.5c-5.8,1-12.2,1.8-16.8,5.7c-0.7,0.6,0.1,1.6,0.8,1.4c5.7-1.3,10.6-4.5,16.4-5.8
				C39,35.6,38.7,34.4,37.9,34.5z"/>
			<path id="Path_80_" class="st1" d="M20.2,22.4c-3.5,0.6-7,0.8-10.4,2.1c-0.6,0.2-1,0.9-0.8,1.5c0.2,0.6,0.8,1,1.4,0.9
				c3.5-0.7,6.7-2.3,10-3.4c0.3-0.1,0.4-0.4,0.3-0.7C20.7,22.6,20.5,22.4,20.2,22.4z"/>
			<path id="Path_81_" class="st1" d="M51.9,40c-3.8,1.3-8,2.4-11.2,4.8c-1.1,0.8-0.5,2.9,1,2.4c3.9-1.3,7.2-4,10.7-6.1
				C52.8,40.8,52.5,39.8,51.9,40z"/>
			<path id="Path_82_" class="st1" d="M70.4,41.9c-0.8,0.5-1.6,0.9-2.3,1.5c-0.8,0.5-1.5,1-2.2,1.6c-0.9,0.9,0.4,2.1,1.3,1.3
				c0.6-0.6,1.2-1.3,1.8-2c0.6-0.7,1.1-1.4,1.7-2.1C70.8,42,70.6,41.8,70.4,41.9z"/>
			<path id="Path_83_" class="st1" d="M88.4,39.1c-2,2.1-4.2,4.2-5.6,6.7c-0.9,1.6,1.6,3.1,2.5,1.5c1.3-2.6,2.2-5.3,3.7-7.7
				C89.4,39.2,88.8,38.8,88.4,39.1z"/>
		</g>
		<g id="buns-upper" transform="translate(11.000000, 0.000000)">
			<path id="Shape_32_" class="st0" d="M220.4,58.2c-1.7-6.9-4.5-13.5-8.1-19.6c-6.6-11.1-17-18.6-28.6-24
				c-12.4-5.7-26-8.7-39.5-10.4c-7.8-0.9-15.6-1.4-23.5-1.4c-2.8,0-5.6,0-8.4-0.1C85.9,5.3,59.3,8.1,36.3,22.6
				C15.2,35.9,1,59.1,4,84.6c0.1,0.5,3.4,8.2,7.2,10.7c6.2,4.1,13.3,4.5,20.5,4.7c-1.7-1.2-3.3-2.6-4.6-4.2c-0.3-0.3-0.3-0.8,0-1.2
				c0.3-0.3,0.8-0.3,1.2,0c2.8,2.5,6,4.4,9.6,5.6c3.8,1.2,7.8,1.9,11.7,2.1c-1.9-1.9-3.2-4.4-3.7-7.1c-0.1-0.2,0.1-0.4,0.2-0.4
				s0.4,0.1,0.5,0.2c1.1,3.5,3.5,5.6,6.4,7.4c0.8,0,1.7,0,2.5,0c-1.9-1.4-3.5-3.2-4.8-5.2c-0.3-0.5,0.5-1,0.9-0.5
				c2,3,4.7,4.3,7.8,5.6c5.5-0.2,11-0.6,16.1-0.5c16.5,0.4,33.9,2.4,49.7-3.3c0.5-0.2,0.9,0.7,0.4,0.9c-2.3,1-4.7,1.9-7.2,2.6
				c10.1,0.8,20.1,1.8,30.4,1.1c8-0.6,15.9-1.8,23.7-3.8c0,0,0-0.1,0-0.1c2-2.9,3.4-6.2,4.2-9.7c0.1-0.2,0.3-0.3,0.5-0.3
				c0.2,0,0.4,0.2,0.4,0.4c-0.1,3.5-1.6,6.9-4.1,9.4c4-1,8-2.2,12-3.5c1.1-0.4,1.5,1.3,0.5,1.8s-2.2,0.9-3.4,1.3
				c2.9,0.1,5.9,0.1,8.8,0c2.2-1.8,4.1-3.7,5.9-5.9c0.1-0.2,0.4-0.3,0.6-0.1c0.2,0.1,0.3,0.4,0.1,0.6c-1,1.9-2.3,3.7-3.8,5.3
				l1.9-0.2c2.5-2.3,4.8-4.5,6.5-7.6c0.1-0.3,0.6-0.1,0.5,0.2c-1,2.6-2.4,5-4.2,7.1c1-0.1,2-0.3,3.1-0.5c2.6-2.7,4.5-6.1,5.4-9.8
				c0-0.2,0.2-0.3,0.4-0.3c0.2,0,0.3,0.2,0.3,0.3c-0.1,3.4-1.4,6.7-3.7,9.2c2.1-0.5,4.2-1.1,6.2-1.8c5.9-2.1,10.1-5.7,11.8-11.9
				c1.1-4.2,1-8.4,0.9-12.7C222.2,66.4,221.4,62.3,220.4,58.2z M6,73.5c-0.3-4.4,1.2-8,3.9-11.4c0.2-0.3,0.8,0.1,0.6,0.4
				c-1.9,3.4-3.1,7.1-3.4,11C7,73.8,6.8,74,6.5,74C6.2,74,6,73.8,6,73.5z M8.2,80c0,0.5-0.8,0.6-0.9,0.1c-0.7-4.5,0.7-8.3,3.7-11.6
				c0.2-0.2,0.4-0.2,0.6,0c0.2,0.1,0.2,0.4,0.1,0.6C9.7,72.3,8.5,76.1,8.2,80z M12.2,78.1c-0.5,1.8-0.7,3.6-0.6,5.5
				c0,0.4-0.3,0.7-0.7,0.7c-0.4,0-0.7-0.3-0.7-0.7c0.1-2,0.5-3.9,1.2-5.7C11.6,77.4,12.3,77.6,12.2,78.1z M17.6,94
				c-2.6-4.3-3.2-8.4-1.4-13.2c0.1-0.2,0.3-0.3,0.5-0.2c0.2,0.1,0.3,0.3,0.3,0.5c-1,4.2-0.6,8.7,1,12.7C18.2,94,17.7,94.3,17.6,94z
				 M20.9,92.5c-1.3-2.5-1.6-5.4-1-8.1c0.1-0.5,0.9-0.3,0.8,0.2c-0.3,2.5,0.2,5,1.4,7.2C22.3,92.6,21.3,93.2,20.9,92.5z M29.5,92.1
				c-2.4-2.1-2.5-6-1.2-8.8c0.2-0.4,0.7-0.1,0.7,0.3c-0.5,3,0.4,5.1,1.6,7.7c0.1,0.3,0.1,0.6-0.2,0.8C30.1,92.3,29.8,92.3,29.5,92.1
				z M38.3,97.1c-3-2.2-4.6-5.7-4.3-9.4c0-0.2,0.2-0.4,0.4-0.4s0.4,0.2,0.4,0.4c0.1,3.4,1.9,6,4.5,8.1C40,96.4,39.1,97.6,38.3,97.1z
				 M136,100.2c-0.6,0.4-1.1-0.6-0.6-0.9c0.7-0.4,1.3-0.9,1.9-1.4c0.6-0.5,1.1-1.1,1.6-1.6c0.1-0.1,0.3-0.1,0.4,0
				c0.1,0.1,0.1,0.3,0,0.4C138.7,98.1,137.5,99.4,136,100.2z M146,92.6c-1,3.2-3.1,7.4-6.5,8.6c-0.3,0.1-0.7-0.1-0.9-0.4
				c-0.2-0.3-0.1-0.7,0.1-0.9c1.2-1.1,2.6-1.8,3.7-2.9c1.3-1.3,2.3-2.8,2.9-4.5C145.4,92,146.1,92.1,146,92.6L146,92.6z M152.6,92.1
				c-0.8,2.1-2.1,4.1-3.6,5.8c-0.5,0.5-1.4-0.2-0.9-0.7c1.4-1.7,2.7-3.5,3.9-5.4C152.1,91.2,152.7,91.7,152.6,92.1L152.6,92.1z
				 M162.3,96.8c-0.4,0.5-1.2-0.3-0.7-0.7c0.7-0.6,1.2-1.4,1.5-2.3c0-0.1,0.2-0.2,0.3-0.2c0.1,0,0.2,0.2,0.2,0.3
				C163.4,95,163,95.9,162.3,96.8L162.3,96.8z M166.4,99.6c-0.4,0.3-0.9-0.3-0.5-0.6c2.3-2.2,4-5,4.8-8.1c0-0.1,0.2-0.2,0.3-0.2
				s0.2,0.1,0.2,0.2C171.2,94.6,169.2,97.6,166.4,99.6L166.4,99.6z M211.4,91.2c-0.4,0.5-1.1-0.1-0.8-0.6c0.9-1.5,1.5-3.2,1.8-5
				c0-0.2,0.2-0.3,0.3-0.3s0.3,0.2,0.3,0.3C213.3,87.6,212.7,89.6,211.4,91.2z"/>
			<path id="Path_84_" class="st1" d="M151.1,12.9c-26.7-5.7-56.4-3.3-82.2,5.5c-21.7,7.5-42,21.5-54.2,41.3
				c-0.2,0.3,0.2,0.6,0.4,0.3c15.4-17,35-28.6,56.7-35.7C97.6,16,124,17,150.7,16.2C152.5,16.1,153.1,13.3,151.1,12.9z"/>
			<path id="Shape_33_" class="st2" d="M185.8,97.3c-1.1,0.5-2.2,0.9-3.4,1.3c2.9,0.1,5.9,0.1,8.8,0c2.2-1.8,4.1-3.7,5.9-5.9
				c0.1-0.2,0.4-0.3,0.6-0.1c0.2,0.1,0.3,0.4,0.1,0.6c-1,1.9-2.3,3.7-3.8,5.3l1.9-0.2c2.5-2.3,4.9-4.5,6.5-7.6
				c0.1-0.3,0.6-0.1,0.5,0.2c-1,2.6-2.4,5-4.2,7.1c1-0.1,2-0.3,3.1-0.5c2.6-2.7,4.5-6.1,5.4-9.8c0-0.2,0.2-0.3,0.4-0.3
				c0.2,0,0.3,0.2,0.3,0.3c-0.1,3.4-1.4,6.7-3.7,9.2c2.1-0.5,4.2-1.1,6.2-1.8c5.9-2.1,10.1-5.7,11.8-11.9c1.1-4.2,1-8.4,0.9-12.7
				c-0.8-4.1-1.5-8.2-2.5-12.3c-1.7-6.9-4.5-13.5-8.1-19.6c-6.6-11.1-17-18.6-28.6-24c-1.7-0.8-3.4-1.5-5.2-2.2
				c1.3,1.2,2.5,2.5,3.6,3.8c21.4,26,3.8,51.1-23.9,61.1c-32,11.5-68.3,13.3-102,10.9c-9.2-0.7-18.3-2-27.3-4
				c-0.3,2.6,0.6,4.7,1.6,7.1c0.2,0.3,0.1,0.6-0.1,0.8c-0.3,0.2-0.6,0.2-0.9-0.1c-2.2-2-2.5-5.4-1.5-8.1c-1.3-0.3-2.6-0.6-3.9-0.9
				c-2.3-0.5-4.8-1-7.2-1.4c-0.8,4-0.4,8.2,1.1,12.1c0.1,0.3-0.3,0.6-0.5,0.3c-2.5-4.1-3.2-8.1-1.6-12.6c-1.4-0.3-2.8-0.7-4.2-1.1
				c-0.1,1.1-0.2,2.2-0.2,3.3c0,0.4-0.3,0.7-0.7,0.7c-0.4,0-0.7-0.3-0.7-0.7c0-1.2,0.2-2.5,0.5-3.7c-0.8-0.3-1.6-0.7-2.4-1.1
				c0,0.4-0.1,0.8-0.1,1.2c0,0.4-0.8,0.6-0.9,0.1c-0.1-0.7-0.2-1.3-0.2-2c-1.5-1.1-2.7-2.6-3.4-4.4C3.5,77.4,3.6,81,4,84.6
				c0.1,0.5,3.4,8.2,7.2,10.7c6.2,4.1,13.3,4.5,20.5,4.7c-1.7-1.2-3.3-2.6-4.6-4.2c-0.3-0.3-0.3-0.8,0-1.2c0.3-0.3,0.8-0.3,1.2,0
				c2.8,2.5,6,4.4,9.6,5.6c3.8,1.2,7.8,1.9,11.7,2.1c-1.9-1.9-3.2-4.4-3.7-7.1c-0.1-0.2,0.1-0.4,0.2-0.5c0.2-0.1,0.4,0.1,0.5,0.2
				c1.1,3.5,3.5,5.6,6.4,7.4c0.8,0,1.7,0,2.5,0c-1.9-1.4-3.5-3.2-4.8-5.2c-0.3-0.5,0.5-1,0.8-0.5c2,3,4.7,4.3,7.8,5.6
				c5.5-0.2,11-0.6,16.1-0.5c16.5,0.4,33.9,2.5,49.7-3.3c0.5-0.2,0.9,0.7,0.4,0.9c-2.3,1-4.7,1.9-7.2,2.6
				c10.1,0.8,20.1,1.8,30.4,1.1c8-0.6,15.9-1.9,23.7-3.9c0,0,0-0.1,0-0.1c2-2.9,3.4-6.2,4.2-9.7c0.1-0.2,0.3-0.3,0.5-0.3
				c0.2,0,0.4,0.2,0.4,0.4c-0.1,3.5-1.6,6.9-4.1,9.4c4-1,8-2.2,12-3.5C186.4,95.1,186.9,96.8,185.8,97.3z M210.6,90.6
				c0.9-1.5,1.5-3.2,1.8-5c0-0.2,0.2-0.3,0.3-0.3s0.3,0.2,0.3,0.3c0.1,2-0.5,4-1.7,5.6C211,91.7,210.3,91.1,210.6,90.6z M20.9,92.6
				c-1.3-2.5-1.6-5.4-1-8.1c0.1-0.5,0.9-0.3,0.8,0.2c-0.3,2.5,0.2,5,1.4,7.2C22.3,92.6,21.3,93.2,20.9,92.6L20.9,92.6z M38.3,97.1
				c-3-2.2-4.6-5.7-4.3-9.4c0-0.2,0.2-0.4,0.4-0.4s0.4,0.2,0.4,0.4c0.1,3.4,1.9,6,4.5,8.1C40,96.4,39.1,97.6,38.3,97.1L38.3,97.1z
				 M136,100.2c-0.6,0.4-1.1-0.6-0.6-0.9c0.7-0.4,1.3-0.9,1.9-1.4c0.6-0.5,1.1-1.1,1.6-1.6c0.1-0.1,0.3-0.1,0.4,0
				c0.1,0.1,0.1,0.3,0,0.4C138.7,98.1,137.5,99.4,136,100.2L136,100.2z M146,92.6c-1,3.2-3.1,7.4-6.5,8.6c-0.3,0.1-0.7-0.1-0.9-0.4
				c-0.2-0.3-0.1-0.7,0.1-0.9c1.2-1.1,2.6-1.8,3.7-2.9c1.3-1.3,2.3-2.8,2.9-4.5C145.4,92,146.1,92.1,146,92.6L146,92.6z M152.6,92.2
				c-0.8,2.1-2.1,4.1-3.6,5.8c-0.5,0.5-1.4-0.2-0.9-0.7c1.4-1.7,2.7-3.5,3.9-5.4C152.1,91.2,152.7,91.7,152.6,92.2L152.6,92.2z
				 M162.3,96.8c-0.4,0.5-1.2-0.3-0.7-0.7c0.7-0.6,1.2-1.4,1.5-2.3c0-0.1,0.2-0.2,0.3-0.2c0.1,0,0.2,0.2,0.2,0.3
				C163.4,95,163,96,162.3,96.8L162.3,96.8z M166.4,99.7c-0.4,0.3-0.9-0.3-0.5-0.6c2.3-2.2,4-5,4.8-8.1c0-0.1,0.2-0.2,0.3-0.2
				c0.1,0,0.2,0.1,0.2,0.2C171.2,94.6,169.2,97.6,166.4,99.7L166.4,99.7z"/>
			<path id="Shape_34_" class="st3" d="M194,98.3l1.9-0.2c2.5-2.3,4.9-4.5,6.5-7.6c0.1-0.3,0.6-0.1,0.5,0.2c-1,2.6-2.4,5-4.2,7.1
				c1-0.1,2-0.3,3.1-0.5c2.6-2.7,4.5-6.1,5.4-9.8c0-0.2,0.2-0.3,0.4-0.3c0.2,0,0.3,0.2,0.3,0.3c-0.1,3.4-1.4,6.7-3.7,9.2
				c2.1-0.5,4.2-1.1,6.2-1.8c5.9-2.1,10.1-5.7,11.8-11.9c1.1-4.2,1-8.4,0.9-12.7c-0.8-4.1-1.5-8.2-2.5-12.3
				c-1.7-6.9-4.5-13.5-8.1-19.6c-2.2-3.7-4.9-7.1-8-10.2c0.2,0.6,0.4,1.1,0.7,1.7c6.5,13.8,10.5,27.3,8,44.4s-17.1,9.5-32,13.1
				c-6.4,1.6-18.1,4.1-29.4,6.5c-0.7,1.4-1.6,2.7-2.7,3.8c-0.5,0.5-1.4-0.2-0.9-0.7c0.7-1,1.4-1.9,2.1-2.8l-5.3,1.1
				c-1.2,2.5-2.9,4.9-5.4,5.7c-0.3,0.1-0.7-0.1-0.9-0.4c-0.2-0.3-0.1-0.7,0.1-0.9c1.2-1.1,2.6-1.8,3.7-2.9c0.4-0.4,0.7-0.8,1-1.2
				l-4,0.8c-0.8,1.5-2,2.7-3.4,3.6c-0.6,0.4-1.1-0.6-0.6-0.9c0.7-0.4,1.3-0.9,1.9-1.4c0.4-0.3,0.7-0.7,1.1-1
				c-5.4,1.1-10.1,2.1-13.3,2.8c-1.1,0.5-2.3,0.9-3.4,1.3l3.5,1.6c7.8,0.8,15.7,0.9,23.5,0.5c8-0.6,15.9-1.9,23.6-3.9
				c0,0,0-0.1,0-0.1c2-2.9,3.4-6.2,4.2-9.7c0.1-0.2,0.3-0.3,0.5-0.3c0.2,0,0.4,0.2,0.4,0.4c-0.1,3.5-1.6,6.9-4.1,9.4
				c4-1,8-2.2,12-3.5c1.1-0.4,1.5,1.3,0.5,1.8s-2.2,0.9-3.4,1.3c2.9,0.1,5.9,0.1,8.8,0c2.2-1.8,4.1-3.7,5.9-5.9
				c0.1-0.2,0.4-0.3,0.6-0.1c0.2,0.1,0.3,0.4,0.1,0.6C196.9,95,195.6,96.8,194,98.3z M210.6,90.6c0.9-1.5,1.5-3.2,1.8-5
				c0-0.2,0.2-0.3,0.3-0.3s0.3,0.2,0.3,0.3c0.1,2-0.5,4-1.7,5.6C211,91.7,210.3,91.1,210.6,90.6z M162.3,96.8
				c-0.4,0.5-1.2-0.3-0.7-0.7c0.7-0.6,1.2-1.4,1.5-2.3c0-0.1,0.2-0.2,0.3-0.2c0.1,0,0.2,0.2,0.2,0.3C163.4,94.9,163,95.9,162.3,96.8
				z M166.4,99.6c-0.4,0.3-0.9-0.3-0.5-0.6c2.3-2.2,4-5,4.8-8.1c0-0.1,0.2-0.2,0.3-0.2c0.1,0,0.2,0.1,0.2,0.2
				C171.2,94.6,169.2,97.6,166.4,99.6L166.4,99.6z"/>
			<path id="Path_85_" class="st4" d="M148.8,103.2c8-0.6,15.9-1.9,23.7-3.9c0,0,0-0.1,0-0.1c1-1.6,1.9-3.3,2.7-5.1l-1,0.3
				c-1.2,0.3-2.6,0.7-4,1c-0.9,1.7-2.2,3.1-3.7,4.2c-0.4,0.3-0.9-0.3-0.5-0.6c1-0.9,1.9-2,2.6-3.2c-7.8,1.7-17.9,3-26.8,4
				c-0.7,0.6-1.5,1-2.3,1.3c-0.3,0.1-0.6,0-0.8-0.2s-0.3-0.5-0.2-0.8c-8.9,1-15.9,1.5-16.4,1.7l0.9,0.6
				C131.6,103.1,140.1,103.8,148.8,103.2z"/>
			<path id="Path_86_" class="st4" d="M201.7,97.4c1.7-1.7,3-3.7,4-5.9c-1.2,0.5-2.4,0.8-3.7,1c-0.9,1.9-2,3.7-3.4,5.4
				C199.7,97.8,200.7,97.6,201.7,97.4z"/>
			<path id="Path_87_" class="st4" d="M185.8,97.3c-1.1,0.5-2.2,0.9-3.4,1.3c2.9,0.1,5.9,0.1,8.8,0c2.1-1.7,4-3.6,5.7-5.6
				c-5.5-0.1-11.5-1.2-20.3,0.9c-0.6,2-1.8,3.8-3.3,5.3c4-1,8-2.2,12-3.5C186.4,95.1,186.9,96.8,185.8,97.3z"/>
			<path id="Path_88_" class="st4" d="M197.9,93c-1,1.9-2.3,3.7-3.8,5.3l1.9-0.2c1.9-1.7,3.6-3.5,5.2-5.5c-1.1,0.1-2.1,0.2-3.2,0.2
				C197.9,92.9,197.9,93,197.9,93z"/>
			<path id="Path_89_" class="st4" d="M222.1,83.2c1.1-4.2,1-8.4,0.9-12.7c-0.8-4.1-1.5-8.2-2.5-12.3c-1.7-6.9-4.5-13.5-8.1-19.6
				c-2.7-4.5-6.1-8.6-10.1-12.1c6.5,9.3,15.8,26.6,17.8,41.8c1.6,12.3-1.7,17-7.3,20.1c-0.3,1-0.7,2-1.4,2.9
				c-0.4,0.5-1.1-0.1-0.8-0.6c0.3-0.5,0.5-1,0.8-1.5c-1.2,0.6-2.6,1.2-4,1.7c-0.5,2.3-1.7,4.3-3.2,6.1c2.1-0.5,4.2-1.1,6.2-1.8
				C216.2,93,220.4,89.3,222.1,83.2z"/>
			<path id="Shape_35_" class="st5" d="M225,70.3v-0.4c-3-18.2-9.7-35.9-24.3-48C184.2,8.2,161.9,3.2,141.1,1
				c-7.5-0.8-15.1-1.1-22.7-0.9c-1.6,0.1-3.3,0.2-4.9,0.3c-0.2-0.1-0.5-0.2-0.7-0.2C85.1,0.6,55,5.1,31.8,21.5
				C15.1,33.3,1.5,52,0.8,72.5C0.1,80.9,0.9,90.3,7.5,96c7.6,6.6,19,7.2,28.6,6.5c11.1,4.7,25.4,1.8,37.1,2
				c13.8,0.2,27.6,1.6,40.9-1.2c11.3,3.4,23.9,3.3,35.5,2.3c9.6-0.8,19-2.6,28.2-5.4c11.8,3.2,26.6,2,37.4-3.7
				C225.1,91.2,226.3,80.3,225,70.3z M222.1,83.2c-1.7,6.1-5.8,9.8-11.8,11.9c-9,3.2-18.5,3.7-27.9,3.5c1.1-0.4,2.3-0.8,3.4-1.3
				c1.1-0.4,0.7-2.1-0.5-1.8c-12,3.9-23.9,6.8-36.5,7.7c-10.2,0.7-20.2-0.3-30.4-1.1c2.4-0.7,4.8-1.6,7.2-2.6
				c0.5-0.2,0.2-1.1-0.4-0.9c-15.8,5.7-33.3,3.7-49.7,3.3c-11.9-0.3-26,2.4-37.7-1.5c-3.6-1.2-6.8-3.1-9.6-5.6
				c-0.3-0.3-0.8-0.3-1.2,0c-0.3,0.3-0.3,0.8,0,1.2c1.3,1.6,2.9,3,4.6,4.2c-7.1-0.2-14.3-0.6-20.5-4.7C7.4,92.9,4.1,85.1,4,84.6
				c-3-25.4,11.2-48.7,32.3-62c23-14.5,49.6-17.3,76.1-19.8c2.8,0,5.6,0,8.4,0.1c7.8,0,15.7,0.4,23.5,1.4
				c13.5,1.7,27.1,4.7,39.5,10.4c11.6,5.3,22,12.9,28.6,24c3.6,6.1,6.3,12.7,8.1,19.5c1,4.1,1.8,8.2,2.5,12.3
				C223.1,74.8,223.2,79,222.1,83.2z"/>
			<path id="Path_90_" class="st5" d="M9.9,62.1c-2.7,3.4-4.2,7-3.9,11.4C6,73.8,6.2,74,6.5,74C6.8,74,7,73.8,7,73.5
				c0.4-3.9,1.6-7.6,3.5-11C10.6,62.2,10.1,61.8,9.9,62.1z"/>
			<path id="Path_91_" class="st5" d="M11.1,68.4c-3,3.3-4.4,7.2-3.7,11.6c0.1,0.5,0.8,0.4,0.9-0.1c0.2-3.9,1.4-7.7,3.5-11
				c0.1-0.2,0.1-0.5-0.1-0.6C11.5,68.2,11.2,68.3,11.1,68.4z"/>
			<path id="Path_92_" class="st5" d="M11.4,77.9c-0.7,1.8-1.1,3.7-1.2,5.7c0,0.4,0.3,0.7,0.7,0.7c0.4,0,0.7-0.3,0.7-0.7
				c0-1.8,0.2-3.7,0.6-5.5C12.3,77.6,11.6,77.4,11.4,77.9z"/>
			<path id="Path_93_" class="st5" d="M18,93.8c-1.6-4-2-8.5-1-12.7c0-0.2-0.1-0.4-0.3-0.5c-0.2-0.1-0.4,0-0.5,0.2
				c-1.9,4.7-1.2,8.9,1.4,13.2C17.7,94.3,18.2,94,18,93.8z"/>
			<path id="Path_94_" class="st5" d="M22,91.9c-1.2-2.2-1.6-4.7-1.4-7.2c0.1-0.5-0.7-0.8-0.8-0.2c-0.6,2.7-0.3,5.6,1,8.1
				C21.3,93.2,22.3,92.6,22,91.9z"/>
			<path id="Path_95_" class="st5" d="M30.5,91.3c-1.2-2.6-2-4.8-1.6-7.7c0.1-0.4-0.5-0.7-0.7-0.3c-1.3,2.8-1.2,6.7,1.2,8.8
				c0.2,0.2,0.6,0.2,0.8,0C30.6,91.9,30.7,91.6,30.5,91.3z"/>
			<path id="Path_96_" class="st5" d="M39.3,95.8c-2.6-2.1-4.4-4.7-4.5-8.1c0-0.2-0.2-0.4-0.4-0.4S34,87.4,34,87.6
				c-0.3,3.7,1.3,7.2,4.3,9.4C39.1,97.6,40,96.4,39.3,95.8z"/>
			<path id="Path_97_" class="st5" d="M54.5,103.3c-3.6-2-6.6-4.1-8-8.2c0-0.1-0.1-0.2-0.3-0.3c-0.1,0-0.3,0-0.3,0.1
				s-0.1,0.2-0.1,0.4c0.8,4.1,3.7,8.5,8,9.6C54.8,105.1,55.5,103.8,54.5,103.3z"/>
			<path id="Path_98_" class="st5" d="M60.6,102.8c-3.6-1.5-6.8-2.7-9-6.1c-0.4-0.5-1.2,0-0.9,0.5c2.1,3.3,5.4,6.6,9.4,7.1
				c0.4,0,0.7-0.3,0.8-0.6C61,103.4,60.9,103,60.6,102.8z"/>
			<path id="Path_99_" class="st5" d="M151.8,91.8c-1.2,1.9-2.4,3.7-3.9,5.4c-0.4,0.6,0.5,1.2,0.9,0.7c1.5-1.7,2.8-3.6,3.6-5.8
				C152.7,91.7,152.1,91.2,151.8,91.8z"/>
			<path id="Path_100_" class="st5" d="M145.3,92.4c-0.6,1.7-1.6,3.3-2.9,4.5c-1.1,1.1-2.5,1.9-3.7,2.9c-0.2,0.2-0.3,0.6-0.1,0.9
				c0.2,0.3,0.5,0.4,0.9,0.4c3.5-1.1,5.6-5.3,6.5-8.6C146.1,92.1,145.4,92,145.3,92.4z"/>
			<path id="Path_101_" class="st5" d="M139,96.2c-0.6,0.5-1.1,1.1-1.6,1.6c-0.6,0.5-1.2,1-1.9,1.4c-0.6,0.4-0.1,1.3,0.6,0.9
				c1.5-0.8,2.7-2.1,3.4-3.6c0.1-0.1,0.1-0.3-0.1-0.4S139.1,96.1,139,96.2z"/>
			<path id="Path_102_" class="st5" d="M212.4,85.6c-0.3,1.8-0.9,3.5-1.8,5c-0.3,0.5,0.4,1.1,0.8,0.6c1.2-1.6,1.8-3.6,1.7-5.6
				c0-0.2-0.2-0.3-0.3-0.3C212.6,85.2,212.4,85.4,212.4,85.6z"/>
			<path id="Path_103_" class="st5" d="M207.1,87.6c-1,4.1-3.2,7.9-6.4,10.8c-0.2,0.2-0.2,0.5,0,0.7c0.2,0.2,0.4,0.3,0.7,0.1
				c3.9-2.5,6.3-6.8,6.4-11.5c0-0.2-0.1-0.3-0.3-0.3C207.4,87.3,207.2,87.4,207.1,87.6z"/>
			<path id="Path_104_" class="st5" d="M202.4,90.5c-1.7,3.4-4.4,5.6-7.1,8.2c-0.6,0.6,0.2,1.7,0.9,1.2c3.2-2.1,5.2-5.8,6.6-9.2
				C203,90.5,202.5,90.3,202.4,90.5z"/>
			<path id="Path_105_" class="st5" d="M197.1,92.6c-1.8,2.2-3.8,4.2-5.9,6c-0.7,0.6,0.2,1.9,1,1.3c2.4-1.9,4.3-4.2,5.6-6.9
				c0.1-0.2,0-0.4-0.1-0.6C197.5,92.4,197.3,92.4,197.1,92.6z"/>
			<path id="Path_106_" class="st5" d="M176.6,89.5c-0.8,3.5-2.2,6.7-4.1,9.7c-0.2,0.3,0.2,0.5,0.4,0.3c2.8-2.5,4.5-6.1,4.6-9.9
				c0-0.2-0.2-0.4-0.4-0.4S176.7,89.3,176.6,89.5z"/>
			<path id="Path_107_" class="st5" d="M170.6,90.9c-0.8,3.1-2.5,5.9-4.8,8.1c-0.4,0.3,0.1,0.9,0.5,0.6c2.8-2.1,4.9-5,4.8-8.6
				c0-0.1-0.1-0.2-0.2-0.2S170.7,90.8,170.6,90.9z"/>
			<path id="Path_108_" class="st5" d="M163,93.8c-0.3,0.9-0.8,1.6-1.5,2.3c-0.5,0.5,0.3,1.2,0.7,0.7c0.7-0.8,1.1-1.8,1.2-2.9
				c0-0.1-0.1-0.3-0.2-0.3C163.2,93.5,163.1,93.6,163,93.8z"/>
			<path id="Path_109_" class="st5" d="M48.9,33.5c-0.2-0.5-1.1-0.1-0.9,0.4c0.7,1.8-1.7,5.4-3.8,4.2c-1.5-0.8,2.1-3.5,3.1-3.6
				c0.1,0,0.1-0.1,0-0.2c-2.2-0.5-6.6,2.9-4,5C46.5,42,50.5,36.5,48.9,33.5z"/>
			<path id="Path_110_" class="st5" d="M51.3,23.1c-0.5,0.8-1.2,1.5-2.1,1.9c-0.4,0.2-0.9,0.1-0.8-0.5c0.1-0.7,0.6-1.3,1.2-1.6
				c0.1,0,0.1-0.1,0.1-0.2c0-0.1-0.1-0.1-0.1-0.1c-1.6,0.1-3.2,2.9-1,3.5c1.5,0.4,3.3-1.4,3.7-2.7C52.3,22.9,51.5,22.6,51.3,23.1z"
				/>
			<path id="Shape_36_" class="st5" d="M62.2,17.8c-0.1,0-0.1,0.1-0.2,0.2s0,0.2,0.1,0.3c-0.8,0.5-1.5,1.3-1.9,2.1
				c-0.7,1.6,0.9,2.5,2.3,2.2c1.7-0.3,3.3-1.5,3.2-3.4C65.6,17.4,63.6,16.9,62.2,17.8z M64.3,20.4c-0.6,0.7-1.4,1.2-2.3,1.3
				c-1.5,0.2-1.3-1.1-0.6-1.9c0.6-0.7,1.3-1.3,2.1-1.7c0.4-0.1,0.8,0.1,1,0.4C64.8,19.1,64.7,19.8,64.3,20.4z"/>
			<path id="Shape_37_" class="st5" d="M70.6,26.9c-2.2,0-4,2.4-5,4c-0.2,0.2,0,0.5,0.3,0.5c-0.3,0.5-0.2,1.1,0.1,1.6
				c0.3,0.5,0.9,0.7,1.5,0.6c1.7-0.1,3.6-1.8,4.4-3.2C72.8,29,72.7,26.9,70.6,26.9z M71.1,29.4c-0.4,0.8-1,1.4-1.7,1.9
				c-0.6,0.5-1.2,0.9-2,1.1c-0.9,0.1-0.9-0.6-0.6-1.2c0.5-1.1,1.3-2,2.3-2.7l0.1-0.1c0.1-0.1,0.3-0.2,0.5-0.3l0.4-0.2h0.2
				C71.3,27.8,71.4,28.7,71.1,29.4z"/>
			<path id="Shape_38_" class="st5" d="M43.8,52.5c-0.2-1-1.1-1.6-2.1-1.5c-1,0.2-1.7,1.2-2.4,1.9c-0.1,0.1-0.1,0.2-0.1,0.3
				c-0.7,0.6-1.2,1.4-1.6,2.3c-0.3,0.6,0,1.3,0.5,1.6c0.7,0.3,1.6,0.3,2.3-0.2C41.8,56.2,44.2,54.3,43.8,52.5z M42.5,53.1
				c-0.6,1.2-1.6,2.2-2.9,2.9c-0.3,0.2-1,0.5-1.2,0.1c-0.2-0.4,0.3-1.2,0.5-1.5c0.3-0.5,0.6-1,1-1.4c0.4-0.3,0.8-0.7,1.3-0.9
				c0.5-0.3,0.8-0.3,1.1,0.1C42.6,52.5,42.7,52.8,42.5,53.1z"/>
			<path id="Shape_39_" class="st5" d="M32.8,38.2c-0.1-0.6-0.6-1.1-1.1-1.2s-1.2,0-1.6,0.4c-1.1,0.9-1.6,2.2-1.5,3.6
				c0,0.2,0.4,0.3,0.5,0.1c0.4,0.5,1.2,0.7,1.8,0.5C32.1,41,32.9,39.6,32.8,38.2z M31.5,39.4c-0.2,0.6-1.8,2.3-2.1,0.9
				c-0.1-0.2-0.1-0.5,0-0.7c0.3-0.5,0.7-0.9,1.1-1.2c0.2-0.2,0.6-0.5,1-0.3C31.9,38.2,31.7,39,31.5,39.4z"/>
			<path id="Shape_40_" class="st5" d="M58.1,49.1c-1-1.1-2.5-0.4-3.3,0.6c-0.7,0.8-1.5,2.6,0,3.1c0.1,0,0.3,0,0.3-0.1
				c0.6,0.1,1.2,0,1.8-0.3C58.2,51.9,59.2,50.3,58.1,49.1z M55.5,51.8c-0.7-0.2,0.4-2.1,1.1-1.9c0.1,0,0.1,0,0.2-0.1
				c0.2,0,0.3,0.1,0.4,0.2c0.1,0.1,0.2,0.3,0.2,0.4C57.1,51.2,56.3,51.8,55.5,51.8z"/>
			<path id="Shape_41_" class="st5" d="M71.4,43c-0.8-0.8-1.7-0.1-2.4,0.5c-1,0.6-2.2,1.5-1.9,2.7c0.3,1.7,2.3,0.9,3.2,0.2
				C71.1,45.7,72.4,44.2,71.4,43z M70.8,44.5c-0.2,0.4-0.5,0.8-0.9,1.1c-0.4,0.4-2.4,1.7-2.2,0.2c0.2-1,1.5-1.6,2.2-2.1
				c0.1-0.1,0.2-0.1,0.4-0.1C71,43.4,71,44.1,70.8,44.5z"/>
			<path id="Shape_42_" class="st5" d="M76.7,57.5c-0.3-0.6-1-0.8-1.6-0.6c-0.4,0.1-0.8,0.3-1.2,0.6c-0.9,0.4-1.6,1.1-2.1,2
				c-0.7,1.6,1.4,2.1,2.6,1.7C75.6,60.9,77.4,59,76.7,57.5z M73.8,60.4c-0.4,0-1.2,0-1.2-0.4c-0.1-0.4,0.4-0.8,0.6-1.1h0.1
				c0.4-0.3,2.8-2.3,2.8-0.8C75.9,59.3,75,60.2,73.8,60.4z"/>
			<path id="Shape_43_" class="st5" d="M87.2,28.2c-1.4-0.4-3.2,1.2-4.2,2c-0.1,0-0.1,0.1-0.1,0.2c-1.3,1.2-2,2.8-0.4,3.3
				c1.6,0.6,3.5-1,4.5-2.1C87.7,30.9,88.9,28.6,87.2,28.2z M86.7,30.4c-0.5,0.7-1.2,1.4-2,1.8c-0.4,0.3-1.4,0.8-2,0.4
				c-0.3-0.3,0.1-0.8,0.3-1.1c0.4-0.6,0.9-1.2,1.5-1.7l0.2-0.1c0.6-0.4,1.3-0.7,2-0.8C87.6,29.1,87,30,86.7,30.4z"/>
			<path id="Shape_44_" class="st5" d="M92.8,15.6c-0.2-0.5-0.7-0.9-1.3-0.8c-1.2,0.1-2,1.4-2.7,2.2c0,0.1,0,0.1,0,0.2
				s0.1,0.1,0.2,0.1c0,0.2,0,0.3,0.1,0.5c0.6,1.3,2.3,0.1,2.9-0.5C92.4,16.9,93,16.3,92.8,15.6z M91.4,16.6
				c-0.2,0.2-1.7,1.5-1.8,0.8c-0.1-0.5,1.1-1.2,1.4-1.5c0.1,0,0.1-0.1,0.1-0.2c0.2-0.1,0.4-0.1,0.6,0C92.1,15.9,91.6,16.4,91.4,16.6
				L91.4,16.6z"/>
			<path id="Shape_45_" class="st5" d="M90.6,9.8c-0.7-1-2.5-0.7-3.5-0.6c-0.1,0-0.2,0.1-0.2,0.2c-2,0.3-4,1.3-4.5,3.3
				s1.7,1.9,3,1.5c1.8-0.5,3.6-1.3,5-2.6C90.6,11.2,91,10.5,90.6,9.8z M89.6,10.8c-0.2,0.5-1.2,0.9-1.6,1.1
				c-0.8,0.4-1.5,0.8-2.3,1.1c-0.8,0.3-3.3,1.2-2.2-0.6c1.2-1.9,3.6-2.5,5.7-2.5C89.5,10.1,89.8,10.4,89.6,10.8L89.6,10.8z"/>
			<path id="Shape_46_" class="st5" d="M118,12.2c-0.9-0.6-2.1-0.8-3.1-0.4c-0.5,0-0.9,0.1-1.4,0.3c-1.2,0.4-2.1,1.3-2.6,2.4
				c-0.5,1.8,1.6,1.8,2.8,1.6c1.7-0.3,3.2-1.1,4.2-2.4C118.5,13.3,118.5,12.6,118,12.2z M116.2,14.2c-0.8,0.5-1.7,0.9-2.6,1.1
				c-0.5,0.1-1.1,0.1-1.6,0c-0.7-0.4,0.8-1.4,1.1-1.7c0.7-0.5,1.5-0.8,2.4-1c0.3,0,0.6-0.1,0.8-0.2c0.6,0,1,0.2,1.1,0.5
				C117.6,13.3,116.4,14,116.2,14.2L116.2,14.2z"/>
			<path id="Shape_47_" class="st5" d="M127,11.1c-0.3-0.3-0.7-0.5-1.2-0.5c-0.4,0-0.9,0.2-1.1,0.6c-0.1,0-0.2,0.1-0.2,0.1
				c-1,1-1.5,2.4-1.6,3.8c0.1,1.7,2.1,1.6,3.1,0.9C127.4,14.9,128.4,12.6,127,11.1z M124.9,15.5c-2.1,0.6-1-2-0.2-3.2
				c0.6-0.7,1.4-1.2,2-0.1S126.1,15.1,124.9,15.5z"/>
			<path id="Shape_48_" class="st5" d="M143.1,12.1c-0.4-0.8-1.4-1.8-2.4-1.7c-0.5,0-1,0.4-1.2,0.9c-1.1,1.5,0.9,6.3,3.2,5.2
				C144.2,15.8,143.7,13.1,143.1,12.1z M142,15.6c-1.1-0.1-2.4-2.8-2-3.9c0.2-0.4,0.7-0.5,1.1-0.3c0.8,0.4,1.3,1.2,1.4,2
				C142.7,13.9,143,15.7,142,15.6z"/>
			<path id="Shape_49_" class="st5" d="M159.2,17.3c-0.4-1.3-2.1-2.8-3.5-2.2c-0.5,0.2-0.8,0.6-0.8,1.2c-0.1,0.1-0.1,0.1-0.1,0.2
				c-0.1,1.5,0.4,3.4,2.1,3.7C158.7,20.6,159.8,18.9,159.2,17.3z M158.2,18.8c-0.3,0.5-1,0.6-1.5,0.3c-0.8-0.5-1.2-1.5-1.1-2.4
				c0-0.2,0.1-0.5,0.2-0.7c0.8-0.7,2,0.8,2.3,1.4C158.3,17.8,158.4,18.3,158.2,18.8z"/>
			<path id="Shape_50_" class="st5" d="M165.6,29.6c-0.8-0.6-1.9-0.6-2.7,0.1c-0.5,0.5-0.7,1.2-0.6,2c0,0.2,0,0.4,0,0.6v0.1
				c0,0,0,0.1,0,0.1c0.1,0.6,0.4,1.2,0.8,1.7c1,0.8,2.4,0.6,3.2-0.4c0.5-0.6,0.7-1.4,0.5-2.2C166.7,30.8,166.2,30.1,165.6,29.6z
				 M164.1,33.8c-0.6-0.1-1.1-1-1.2-1.9c0-0.6,0.1-1.3,0.8-1.5c0.7-0.1,1.5,0.3,1.8,1C166,32.3,165.4,33.9,164.1,33.8z"/>
			<path id="Shape_51_" class="st5" d="M148.1,41.1c-0.7-1.6-3-2.8-4.6-1.7c-0.1,0.1-0.2,0.2-0.2,0.4c-0.4,0.6-0.6,1.3-0.6,2
				c0.2,1.8,2.1,3.5,4,3C148.4,44.3,148.7,42.4,148.1,41.1z M146.8,43.3c-0.6,0.9-2,0.1-2.5-0.5c-0.4-0.5-0.6-1-0.6-1.6
				c0-0.4,0.1-0.8,0.4-1.1C145.6,39.9,147.9,41.8,146.8,43.3z"/>
			<path id="Shape_52_" class="st5" d="M141.6,24.9c-0.2-0.4-0.5-0.6-0.9-0.7c-0.4-0.1-0.8,0.1-1.1,0.4c0,0-0.1-0.1-0.1-0.1
				c-0.1,0-0.1,0-0.1,0.1c-0.7,1-1.5,2.5-0.7,3.6c0.3,0.5,0.8,0.7,1.4,0.8c0.6,0,1.1-0.2,1.4-0.7C142.1,27.3,142.2,26,141.6,24.9z
				 M140.6,27.4c-0.1,0.4-0.5,0.6-0.9,0.6c-0.4,0-0.7-0.3-0.8-0.7c-0.1-0.7,0-1.4,0.4-2c0.1,0,0.1,0,0.2,0c0.6-0.2,0.8-0.4,1.1,0.4
				C140.8,26.2,140.8,26.9,140.6,27.4z"/>
			<path id="Path_111_" class="st5" d="M139,25.4c-0.5,0.5-0.7,1.2-0.8,1.8c0,0.1,0.2,0.1,0.2,0C138.5,26.5,138.7,25.9,139,25.4
				C139,25.3,139,25.3,139,25.4z"/>
			<path id="Shape_53_" class="st5" d="M119,28.3c0-0.8-0.6-1.6-1.3-1.9c-0.8-0.3-1.6-0.2-2.3,0.3c-0.1,0.1-0.2,0.2-0.1,0.4
				c-1,1.2-0.8,3.5,1.1,3.9C118,31.4,119.2,29.8,119,28.3z M116.2,29.7c-0.3-0.2-0.5-0.6-0.6-1c-0.1-0.4,0.1-0.8,0.3-1.1h0.1
				c0.4-0.2,0.8-0.3,1.2,0c0.3,0.3,0.5,0.7,0.5,1.2C117.6,29.5,116.9,30.2,116.2,29.7z"/>
			<path id="Shape_54_" class="st5" d="M104.2,26.9c-0.2-0.7-0.9-1.2-1.7-1.2c-0.9,0-1.8,0.4-2.4,1.1c-0.7,0.7-1,1.6-0.9,2.5
				c0,0.3,0.2,0.6,0.5,0.8c0.3,0.2,0.7,0.2,0.9,0C102.2,30.4,104.6,28.5,104.2,26.9z M100.9,29.2c-1.1,0.1,0.2-1.5,0.5-1.8l0.2-0.1
				c0.3-0.2,1.4-0.5,1.3,0.2C102.5,28.3,101.8,28.9,100.9,29.2z"/>
			<path id="Shape_55_" class="st5" d="M101.5,41c-0.3-0.9-1.3-1.4-2.2-1.1c-1.6,0.4-2.8,1.8-2.9,3.4c-0.1,0.3-0.1,0.6,0,0.9
				c0.8,1.5,3.5-0.2,4.2-0.9C101.3,42.8,101.7,41.9,101.5,41z M100.2,41.8c-0.1,0.5-0.7,1-1.1,1.3c-0.4,0.3-1.9,1.3-2,0.4
				c0.1-1.2,1-2.2,2.2-2.4C99.8,41.2,100.4,41.2,100.2,41.8z"/>
			<path id="Shape_56_" class="st5" d="M101.6,52.1c-0.8,0.1-1.5,0.5-2,1.1c-0.7,0.5-1.2,1.2-1.4,2c-0.2,1.4,1,2.1,2.2,1.6
				c1.1-0.4,1.9-1.2,2.4-2.3C103.4,53.4,103.1,52.1,101.6,52.1z M101.2,54.9c-0.3,0.4-1.6,1.5-2,0.9c-0.1-0.2-0.2-0.5,0-0.8
				c0.3-0.4,0.6-0.7,1-1c0.4-0.4,0.8-0.7,1.4-0.8C102.4,53.1,101.4,54.5,101.2,54.9z"/>
			<path id="Shape_57_" class="st5" d="M124.8,41.2c-0.8,0.3-1,1.2-1.1,2.1c-0.4,1.1-0.4,2.4,0.8,2.9c1.7,0.7,2.7-1.4,2.7-2.7
				C127.3,42.3,126.4,40.6,124.8,41.2z M125.1,45.3c-1.4,0.3-0.7-2-0.3-2.8c0.6-0.6,1.2,0,1.2,0.7S125.9,45.2,125.1,45.3z"/>
			<path id="Shape_58_" class="st5" d="M117.6,59.1c-1.3,0.3-2.2,1.9-2.5,3.3c-0.2,0.4-0.3,0.8-0.3,1.2c0,0.5,0.1,0.9,0.5,1.3
				c0.3,0.3,0.8,0.5,1.3,0.5c1.8-0.1,2.5-2,2.8-3.5C119.5,60.9,119.3,58.8,117.6,59.1z M118,61.5c-0.1,0.8-0.4,1.6-0.9,2.3
				c-0.4,0.5-1.2,0.7-1.5-0.1c0,0,0-0.1,0-0.1c0-0.1,0-0.1,0-0.2c0-0.7,0.2-1.3,0.6-1.8c0.1-0.1,0.2-0.3,0.3-0.4c0,0,0-0.1,0-0.1
				c0.2-0.2,0.4-0.4,0.6-0.6C118.2,59.5,118.2,60.8,118,61.5z"/>
			<path id="Shape_59_" class="st5" d="M136.4,63.4c-0.2-1.6-1.1-4.2-3.2-3.8c-1.7,0.3-1.9,1.9-1.8,3.4c-0.2,1.8,0.1,3.7,1.7,4.4
				C135.4,68.3,136.5,65.2,136.4,63.4z M135,64.6c-0.2,1-1.1,2.2-2,1.1c-0.2-0.3-0.4-0.6-0.5-1c0.1-1-0.2-2.5,0.3-3.4
				c1-1.6,2,1,2.1,1.7C135,63.6,135,64.1,135,64.6z"/>
			<path id="Shape_60_" class="st5" d="M164,60c-1.4-1.1-2.9,0.4-2.5,1.9c-0.2,1.5,0.2,3.1,1.1,4.4c1.1,1.5,2.8,1.2,3.1-0.6
				S165.5,61.1,164,60z M164.5,65.7c-0.6,1.1-1.5-0.7-1.8-1.3c-0.3-0.7-0.5-1.6-0.4-2.4c0-0.5,0.1-0.9,0.4-1.3
				c0.6-0.3,0.9,0.4,1.1,0.8c0.3,0.6,0.6,1.2,0.7,1.9C164.7,64.1,164.7,64.9,164.5,65.7z"/>
			<path id="Shape_61_" class="st5" d="M175.3,42.6c-0.5-1.4-2.4-2.6-3.8-1.6c-1.2,0.8-1.4,2.8-1,4.1c0,0.1,0.1,0.2,0.2,0.2
				s0.2,0.1,0.3,0c0,0.1,0.1,0.2,0.1,0.3c0.4,0.9,1.3,1.6,2.3,1.5C175.1,46.9,175.8,44.1,175.3,42.6z M173.3,46
				c-1,0.6-1.9-0.9-2.1-1.7c-0.1-0.6-0.2-1.2-0.1-1.8c0.1-0.2,0.1-0.4,0.2-0.6c0.7-1.3,2.2-0.4,2.7,0.6S174.4,45.5,173.3,46z"/>
			<path id="Shape_62_" class="st5" d="M184,51.9c-1.3-0.6-2.9,1.1-3.2,2.3c0,0.1,0,0.2,0.1,0.3c-0.7,1-0.6,2.3,0.1,3.3
				c1.3,1.6,3.3-0.3,3.9-1.5C185.4,55.1,185.7,52.6,184,51.9z M183.6,55.4c-0.2,0.5-1.1,2.1-1.8,1.3c-0.7-0.8,0-2.4,0.6-3.3
				c0.2-0.3,0.6-0.5,0.9-0.5C184.4,53.1,183.8,54.8,183.6,55.4z"/>
			<path id="Shape_63_" class="st5" d="M182.3,24.7c-0.6-0.9-1.7-1.4-2.8-1.3c-0.9,0.3-1.5,1.2-1.3,2.1c0.1,1.6,1.6,4.6,3.5,4.7
				c0.1,0,0.2-0.1,0.3-0.2h0.4C185.2,29.5,183.4,25.9,182.3,24.7z M182.7,28.5c-0.2,0.6-1,0.6-1.5,0.4c-1.3-0.6-1.7-2.4-2-3.7
				c0-0.3,0.2-0.6,0.5-0.7c0.7-0.2,1.5,0.6,1.9,1.1c0.5,0.5,0.8,1.2,1.1,1.8C182.8,27.8,182.8,28.2,182.7,28.5z"/>
			<path id="Shape_64_" class="st5" d="M197.8,30.4c-1.2-1.3-3.5-1.6-4.3,0.3c-0.7,1.6,0.6,4,2.1,5.1c1,0.9,2.3,1.2,3.2-0.2
				S198.9,31.7,197.8,30.4z M196.4,35.1c-1.1-0.8-2.1-2.7-1.3-3.9c0-0.1,0-0.2,0-0.2c0-0.1-0.1-0.1-0.2-0.1c0.5-0.3,1.1-0.3,1.5,0.1
				c0.6,0.5,1,1.2,1.2,2C197.9,33.9,197.9,36.1,196.4,35.1z"/>
			<path id="Shape_65_" class="st5" d="M197.2,48.8c-0.3-1.7-2.2-2.8-3.6-1.4c-1,1.4-1.1,3.2-0.3,4.7c0.1,0.2,0.3,0.3,0.4,0.3
				c0.2,0,0.4-0.1,0.4-0.3l0.2,0.1C196.4,52.8,197.4,50.3,197.2,48.8z M195,51.2c-0.4,0-0.8-0.2-1-0.6c-0.1-0.6,0-1.2,0.1-1.8
				c0.3-0.9,1.4-1.5,1.9-0.4C196.3,49.4,196.1,51,195,51.2z"/>
			<path id="Shape_66_" class="st5" d="M208.1,55.6c-1.7-1.3-3.4,0.5-3.7,2.2c0,0.1,0,0.2,0.1,0.3c0,0.4,0,0.8,0.2,1.2
				c0.3,0.6,0.9,1,1.6,1.1c0.7,0.1,1.4-0.2,1.9-0.7c0.6-0.5,0.9-1.3,0.9-2.1C209,56.8,208.7,56.1,208.1,55.6z M207.1,58.9
				c-0.3,0.3-0.7,0.4-1,0.3s-0.7-0.3-0.8-0.7c-0.1-0.3-0.2-0.7-0.1-1c0.5-0.9,1.6-2.2,2.5-1.1C208.1,57.2,207.9,58.3,207.1,58.9
				L207.1,58.9z"/>
		</g>
	</g>
</g>
</svg>
